M48
;Layer_Color=9474304
;FILE_FORMAT=4:4
METRIC,LZ
;TYPE=PLATED
T10F00S00C1.0000
T12F00S00C1.5000
%
G90
G05
T10
G00X000113Y0009875
M15
G01X000063
M16
G00X000413Y0009875
M15
G01X000363
M16
G00X000813Y0009875
M15
G01X000763
M16
G00X000913Y0005275
M15
G01X000863
M16
G00X-002913Y0003925
M15
G01X-002863
M16
G00X-003213Y0003925
M15
G01X-003163
M16
G00X-003613Y0003925
M15
G01X-003563
M16
G00X-003713Y0008525
M15
G01X-003663
M16
T12
G00X001162Y00156
M15
G01X001292
M16
G00X-003962Y00156
M15
G01X-004092
M16
G00X-003962Y00268
M15
G01X-004092
M16
G00X001162Y00268
M15
G01X001292
M16
M17
M30
