M48
;Layer_Color=9474304
;FILE_FORMAT=4:4
METRIC,LZ
;TYPE=PLATED
T01F00S00C0.2000
T02F00S00C0.5000
T03F00S00C0.7000
T04F00S00C0.7112
T05F00S00C0.7500
T06F00S00C0.8128
T07F00S00C0.8500
T08F00S00C0.9000
T09F00S00C1.0000
T11F00S00C1.2000
T13F00S00C1.7000
T14F00S00C1.9000
T15F00S00C2.2000
T16F00S00C3.0000
T17F00S00C3.2000
T18F00S00C4.1000
%
T01
X-000206Y001264
X-000011Y0013265
Y001449
Y0015715
X-000206Y001634
X-002594
X-002789Y0015715
Y001449
Y0013265
X-002594Y001264
T02
X0083175Y001886
X0069975
X-0097975
X-0111175
T03
X-00010688Y00697238
X-00010188Y00727238
X-00268812
X-00269312Y00697238
T04
X-00336Y-0025
X-00292Y-00245
X00014
X01273Y00113
X01361Y00081
X01165Y00065
X01069Y00096
X01025Y00139
X00702Y0015
X00665Y00021
X00645Y00005
X00553Y00021
X00457Y-00006
X00492Y00101
X00472Y0013084
X00481Y00159
X00404Y00162
X0035Y00164
X00282025Y00163975
X00259Y0009
X00263Y-00071
X00176Y-00081
X00187Y-00136
X00095Y-00185
X0011Y00007
X00349Y-00019
X-00266Y-00114
X-00364Y-00175
X-00484Y-00126
X-0054Y-00056
X-0062Y-00037
X-00744Y-00004
X-00757Y00015
X-00786Y00021
X-0081Y00006
X-00698632Y00134
X-0068Y00147
X-00631Y00159
X-00608Y00196
X-00527Y0019
Y00087
X-00432Y00024
X-00932Y00021
X-00950228Y00005772
X-01335Y00084
X-01327656Y00133061
X-01307Y00205
X-01447Y00079
X-01536Y00099
X-01653Y00094
X-0162Y00228
X-01681Y00283
X-01657Y00413
X-01519Y00454
X-01407Y00458
X-01413Y00409
X-01478Y00377
X-01484Y00267
X-01372Y00271
X-01277Y00224
X-0128Y00207
X-01292Y00414
X-01359Y0052
X-01572Y00303
X-01596Y00262
X-01168Y00216
X-01116Y00264
X-01084Y00331
X-00981Y00316
X-0095045Y00330993
X-009055Y00241
X-00895Y00226
X-00915Y00216
X-00899Y00431
X-00981Y00459
X-00982Y00506
X-01086Y00522
X-01189Y00552
X-01196Y00596
X-01177Y00407
X-00779Y00417
X-00707Y00402
X-00603Y00387
Y00339
X-00593Y00211
X-00705Y0021
X-00767Y0026
X-00761Y00591
X-00715Y00592
X-00707Y00577
X-00683Y00516
X-00617Y00529
X-00603Y00577
X-00363Y00431
X00001Y00391
X00015Y00353
X00194Y00344
X00207014Y00328894
X00223Y00298
X00245Y00344
X00267Y00327
X00283Y00418
X00328624Y00401624
X00327555Y00592555
X00323472Y00210472
X0048Y00231
X00519Y00241
X00462Y00265
X00484Y0033
X00425624Y00386624
X0052316Y00431091
X00613828Y00416172
X00653Y00392
X00712007Y00330993
X0073Y00277
X00678Y00213
X00619Y00226
X00628Y00242
X00709719Y00521719
X00762Y00485
X00568Y00557
X0054Y0058
X00517Y00537
X00462Y00557
X00474Y00593
X0043Y00577
X00809281Y00506719
X00915Y00421
Y00391
X00914Y00351
X00984Y00384
X0106Y00295
X01129Y00301
X01136Y00211
X01025Y00226
X00995Y00209
X00897Y0023
X00804993Y00315993
X01028Y0054
X01138Y00472
X01236989Y0045395
X01206Y00422
X01258Y00387
X013105Y004335
X01324Y00314
X01295Y00287
X01389Y0027
X01198Y00253
X01248Y00584
X01129Y00774
X01045Y00728959
X00909521Y0074
X00925Y00629
X00924Y00611
X00871Y00648
X00825Y00669
X00785Y00666
X00769Y00649
X00711228Y00711772
X0065Y00658
X00625Y00607
X00516971Y0062224
X00463Y00624
X00408Y00614
X0031Y00707
X00025Y00726
X-00509Y00637
X-0067Y00716
X-00765Y00655
X-00744Y00621
X-00794Y00607
X-00802Y00691
X-00946Y00688
X-0101Y00676
X-00986Y0065
X-01065Y00675
X-01091Y00711
X-01134Y00678
X-01189Y00612
X-00896Y00622
X-01307Y00604
T05
X-002703Y003035
Y003235
X-000097
Y003035
T06
X-00487Y005037
Y005291
Y005545
Y005799
X-003346
Y005545
Y005291
Y005037
X000546
Y005291
Y005545
Y005799
X00207
Y005545
Y005291
Y005037
Y006053
Y006307
Y006561
Y006815
Y007069
Y007323
Y007577
Y007831
X000546
Y007577
Y007323
Y007069
Y006815
Y006561
Y006307
Y006053
X-003346
Y006307
Y006561
Y006815
Y007069
Y007323
Y007577
Y007831
X-00487
Y007577
Y007323
Y007069
Y006815
Y006561
Y006307
Y006053
T07
X005463Y001505
X005717
X005971
X006225
X006479
X-008262
X-008516
X-00877
X-009024
X-009278
T08
X-000101Y0012365
Y0016615
X-002699
Y0012365
T09
X-0000725Y002015
X000477Y00187
X001927
X-0027275Y002015
X-003277Y00187
X-004727
Y00237
X-00448091Y0036695
X-00422691
X-00397291
X-00371891
X-003277Y00237
Y00212
X-0027275Y002375
X-0000725
X000477Y00237
Y00212
X001927Y00237
X00169791Y0036695
X00144391
X00118991
X00093591
X011922Y0080114
X012176
X011668
X011414
X01116
X-01396
X-014214
X-014468
X-014722
X-014976
T11
X-000102Y0007575
X000598
X-002698Y0006225
X-003398
T13
X-0026893Y-0020912
X-0001107Y-0020912
X01172166Y00121986
X01279434Y00154414
X01368066Y00138786
X01083534Y00137614
X00641995Y00063545
X00551995
X00429417Y00046747
X00342483Y00023453
X002282Y-00024283
X00150257Y-00069283
X0005257Y-0014548
X-0033257Y-0014548
X-00430257Y-00069283
X-005082Y-00024283
X-00622483Y00023453
X-00709417Y00046747
X-0083205Y000638
X-0092205
X-01363534Y00137614
X-01452166Y00121986
X-01559434Y00154414
X-01648066Y00138786
X-01680866Y00326786
X-01592234Y00342414
X-01485037Y0031061
X-01396404Y00326239
X-0127454Y00267161
X-0128714Y00457461
X-01429634Y00513214
X-01518266Y00497586
X-0119736Y00463739
X-0118476Y00273439
X-01082914Y00374021
X-00992914
X-00892414Y00284021
X-0089255Y004742
X-00992914Y00564747
X-01082914
X-0080255Y004742
X-0070242Y00444653
X-0061242
X-0061225Y002535
X-0070225
X-00802414Y00284021
X0033246Y00253116
X00332631Y00444269
X00422631
X0052276Y00473816
X0061276
X00612624Y00283638
X00522624
X0042246Y00253116
X00712914Y00374021
Y00564747
X00802914
Y00374021
X0090476Y00273439
X0099454Y00267161
X01116404Y00326239
X01149634Y00513214
X0100714Y00457461
X0091736Y00463739
X01238266Y00497586
X01205037Y0031061
X01312234Y00342414
X01400866Y00326786
X0102089Y00647861
X0093111Y00654139
X0080305Y007548
X0071305
X0061265Y00665
X0052265
X0042265Y006352
X0033265
X-0061265
X-0070265
X-0080265Y00665
X-0089265
X-0099305Y007548
X-0108305
X-0121096Y00653539
X-0130074Y00647261
T14
X-00264829Y-00213221
X-00015171Y-00213221
X01177878Y00120979
X01273722Y00155421
X01373778Y00137779
X01077822Y00138621
X00647795Y00063545
X00546195
X00435019Y00048248
X00336881Y00021952
X00233223Y-00021383
X00145234Y-00072183
X00056671Y-00141379
X-00336671Y-00141379
X-00425234Y-00072183
X-00513223Y-00021383
X-00616881Y00021952
X-00715019Y00048248
X-0082625Y000638
X-0092785Y000638
X-01357822Y00138621
X-01457878Y00120979
X-01553722Y00155421
X-01653778Y00137779
X-01686578Y00325779
X-01586522Y00343421
X-01490749Y00309603
X-01390692Y00327246
X-01280326Y00266756
X-01292926Y00457056
X-01423922Y00514221
X-01523978Y00496579
X-01191574Y00464144
X-01088714Y00374021
X-00987114
X-00898214Y00284021
X-0089835Y004742
X-00987114Y00564747
X-01088714
X-01178974Y00273844
X-00796614Y00284021
X-0070805Y002535
X-0060645
X-0060662Y00444653
X-0070822
X-0079675Y004742
X00326831Y00444269
X0032666Y00253116
X0042826
X00516824Y00283638
X00618424
X00707114Y00374021
X0061856Y00473816
X0051696
X00428431Y00444269
X00707114Y00564747
X00808714
Y00374021
X00898974Y00273844
X01000326Y00266756
X01110692Y00327246
X01143922Y00514221
X01012926Y00457056
X00911574Y00464144
X01243978Y00496579
X01306522Y00343421
X01406578Y00325779
X01210749Y00309603
X01026676Y00647456
X00925324Y00654544
X0080885Y007548
X0070725
X0061845Y00665
X0051685
X0042845Y006352
X0032685
X-0060685
X-0070845
X-0079685Y00665
X-0089845
X-0098725Y007548
X-0108885
X-01205174Y00653944
X-01306526Y00646856
T15
X-0113325Y003658
X-0094275Y005563
X-0075225Y003658
X0047225
X0066275Y005563
X0085325Y003658
X010993Y00607
X-013793
T16
X01290639Y0017823
X01357585Y00192218
X01161685Y00175418
X0109474Y0016143
X00622395Y00114345
X00558895Y00088945
X00397337Y00090743
X00342574Y00049774
X00185826Y00009911
X00143533Y-00043836
X00002789Y-00123419
X-00024151Y-0018628
X-00246868Y-0015934
X-0030973Y-00132399
X-00421831Y-00015489
X-00489524Y-00005736
X-00628268Y00077595
X-00696178Y00069496
X-0085165Y001146
X-0091515Y000892
X-01391657Y00184239
X-01449782Y00148198
X-01587557Y00201039
X-01645682Y00164998
X-01678482Y00352998
X-01620357Y00389039
X-01482652Y00336823
X-01424528Y00372863
X-01457757Y00559839
X-01515882Y00523798
X-01282029Y0048328
X-01220455Y00513048
X-01269429Y0029298
X-01207856Y00322748
X-01076014Y00399421
X-01012514Y00424821
X-0088565Y004996
X-0082215Y00525
X-00822014Y00334821
X-00885514Y00309421
X-01076014Y00590147
X-0069552Y00470053
X-0063202Y00495453
X-0063185Y003043
X-0069535Y002789
X0033936Y00278517
X00339531Y00469669
X00403031Y00495069
X0052966Y00499216
X0059316Y00524617
X00593024Y00334438
X00529524Y00309038
X0040286Y00303916
X00719814Y00399421
Y00590147
X00783314Y00424821
X00926015Y00488596
X00991132Y00509504
X01160839Y0053703
X0112761Y00350055
X00978532Y00319204
X00913415Y00298296
X01194556Y00364042
X01323439Y0036623
X01390385Y00380218
X01227785Y00551018
X01004882Y00699904
X00939765Y00678996
X00783314Y00615547
X0078345Y008056
X0071995Y007802
X0059305Y007158
X0052955Y006904
X0040305Y00686
X0033955Y006606
X-0063225Y00686
X-0069575Y006606
X-0082225Y007158
X-0088575Y006904
X-01012514Y00615547
X-0101265Y008056
X-0107615Y007802
X-01234055Y00702848
X-01295629Y0067308
T17
X008663Y001344
X009824Y001268
X0Y0
X-0028
X-011463Y001344
X-012624Y001268
X-011198Y00471
X008398
X009083Y007943
X010567Y007842
X006208Y007943
X0
X-0028
X-009008
X-011883
X-013367Y007842
T18
X0132375Y001466
X0112785Y001298
X00596995Y00063545
X0038595Y000351
X00189228Y-00046783
X0002075Y-001773
X-0030075
X-00469228Y-00046783
X-0066595Y000351
X-0087705Y000638
X-0140785Y001298
X-0160375Y001466
X-0163655Y003346
X-01440721Y00318424
X-0147395Y005054
X-0124225Y004606
X-0122965Y002703
X-01037914Y00374021
Y00564747
X-0084755Y004742
X-00847414Y00284021
X-0065725Y002535
X-0065742Y00444653
X00377631Y00444269
X0037746Y00253116
X00567624Y00283638
X0056776Y00473816
X00757914Y00564747
Y00374021
X0096225Y004606
X0094965Y002703
X01160721Y00318424
X0135655Y003346
X0119395Y005054
X00976Y00651
X0075805Y007548
X0056765Y00665
X0037765Y006352
X-0065765
X-0084765Y00665
X-0103805Y007548
X-0125585Y006504
M30
