M48
;Layer_Color=9474304
;FILE_FORMAT=4:4
METRIC,LZ
;TYPE=PLATED
T10F00S00C1.0000
T12F00S00C1.5000
;TYPE=NON_PLATED
%
G90
G05
T10
G00X000063Y0003925
M15
G01X000113
M16
G00X000363Y0003925
M15
G01X000413
M16
G00X000763Y0003925
M15
G01X000813
M16
G00X000863Y0008525
M15
G01X000913
M16
G00X-002863Y0009875
M15
G01X-002913
M16
G00X-003163Y0009875
M15
G01X-003213
M16
G00X-003563Y0009875
M15
G01X-003613
M16
G00X-003663Y0005275
M15
G01X-003713
M16
T12
G00X001162Y00156
M15
G01X001292
M16
G00X-003962Y00156
M15
G01X-004092
M16
G00X-003962Y00268
M15
G01X-004092
M16
G00X001162Y00268
M15
G01X001292
M16
M17
M30
