M48
;Layer_Color=9474304
;FILE_FORMAT=4:4
METRIC,LZ
;TYPE=PLATED
T01F00S00C0.2000
T02F00S00C0.5000
T03F00S00C0.7000
T04F00S00C0.7112
T05F00S00C0.7500
T06F00S00C0.8128
T07F00S00C0.8500
T08F00S00C0.9000
T09F00S00C1.0000
T11F00S00C1.2000
T13F00S00C2.2000
T14F00S00C3.2000
;TYPE=NON_PLATED
T15F00S00C1.7000
T16F00S00C1.9000
T17F00S00C3.0000
T18F00S00C4.1000
%
T01
X-000206Y001264
X-000011Y0013265
Y001449
Y0015715
X-000206Y001634
X-002594
X-002789Y0015715
Y001449
Y0013265
X-002594Y001264
T02
X0083175Y001886
X0069975
X-0097975
X-0111175
T03
X-00010688Y00697238
X-00011188Y00727238
X-00269812
X-00269312Y00697238
T04
X-00294Y-00245
X00012
X00056Y-0025
X01256Y00099
X01373Y00094
X01167Y00079
X01055Y00084
X01047656Y00133061
X01027Y00205
X00670228Y00005772
X00652Y00021
X0053Y00006
X00506Y00021
X00477Y00015
X00464Y-00004
X00418632Y00134
X004Y00147
X00351Y00159
X00328Y00196
X00247Y0019
Y00087
X0026Y-00056
X0034Y-00037
X00204Y-00126
X00084Y-00175
X-00014Y-00114
X00152Y00024
X-0039Y00007
X-00375Y-00185
X-00467Y-00136
X-00456Y-00081
X-00543Y-00071
X-00629Y-00019
X-00737Y-00006
X-00772Y00101
X-00752Y0013084
X-00761Y00159
X-00684Y00162
X-0063Y00164
X-00562025Y00163975
X-00539Y0009
X-00833Y00021
X-00925Y00005
X-00945Y00021
X-00982Y0015
X-01305Y00139
X-01349Y00096
X-01445Y00065
X-01553Y00113
X-01641Y00081
X-01669Y0027
X-01604Y00314
X-01575Y00287
X-01478Y00253
X-01416Y00211
X-01409Y00301
X-0134Y00295
X-01305Y00226
X-01275Y00209
X-01264Y00384
X-01308Y0054
X-01418Y00472
X-01516989Y0045395
X-01486Y00422
X-01538Y00387
X-015905Y004335
X-01528Y00584
X-01195Y00421
Y00391
X-01194Y00351
X-01177Y0023
X-01084993Y00315993
X-00992007Y00330993
X-0101Y00277
X-00958Y00213
X-00899Y00226
X-00908Y00242
X-00933Y00392
X-00893828Y00416172
X-00848Y00557
X-0082Y0058
X-00989719Y00521719
X-01042Y00485
X-01089281Y00506719
X-00797Y00537
X-00742Y00557
X-00754Y00593
X-0071Y00577
X-00607555Y00592555
X-00608624Y00401624
X-00563Y00418
X-00547Y00327
X-00525Y00344
X-00474
X-00487014Y00328894
X-00503Y00298
X-00603472Y00210472
X-0076Y00231
X-00799Y00241
X-00742Y00265
X-00763Y00333
X-00705624Y00386624
X-0080316Y00431091
X-00281Y00391
X-00295Y00353
X00083Y00431
X00323Y00387
Y00339
X00313Y00211
X00337Y00529
X00323Y00577
X00427
X00435Y00592
X00481Y00591
X00403Y00516
X00427Y00402
X00499Y00417
X00619Y00431
X00701Y00459
X00702Y00506
X00701Y00316
X0067045Y00330993
X006255Y00241
X00615Y00226
X00635Y00216
X00487Y0026
X00425Y0021
X00836Y00264
X00804Y00331
X00897Y00407
X01012Y00414
X01133Y00409
X01127Y00458
X01079Y0052
X00909Y00552
X00916Y00596
X00806Y00522
X00888Y00216
X00997Y00224
X01Y00207
X01092Y00271
X01204Y00267
X01198Y00377
X01239Y00454
X01377Y00413
X01401Y00283
X01316Y00262
X0134Y00228
X01292Y00303
X01027Y00604
X00909Y00612
X00854Y00678
X00785Y00675
X00811Y00711
X0073Y00676
X00706Y0065
X00666Y00688
X00616Y00622
X00514Y00607
X00464Y00621
X00485Y00655
X00522Y00691
X0039Y00716
X00229Y00637
X-00305Y00726
X-0059Y00707
X-00688Y00614
X-00743Y00624
X-00796971Y0062224
X-00905Y00607
X-0093Y00658
X-00991228Y00711772
X-01065Y00666
X-01049Y00649
X-01105Y00669
X-01151Y00648
X-01205Y00629
X-01204Y00611
X-01189521Y0074
X-01325Y00728959
X-01409Y00774
T05
X-002703Y003035
Y003235
X-000097
Y003035
T06
X-00487Y005037
Y005291
Y005545
Y005799
X-003346
Y005545
Y005291
Y005037
X000546
Y005291
Y005545
Y005799
X00207
Y005545
Y005291
Y005037
Y006053
Y006307
Y006561
Y006815
Y007069
Y007323
Y007577
Y007831
X000546
Y007577
Y007323
Y007069
Y006815
Y006561
Y006307
Y006053
X-003346
Y006307
Y006561
Y006815
Y007069
Y007323
Y007577
Y007831
X-00487
Y007577
Y007323
Y007069
Y006815
Y006561
Y006307
Y006053
T07
X005462Y001505
X005716
X00597
X006224
X006478
X-008263
X-008517
X-008771
X-009025
X-009279
T08
X-000101Y0012365
Y0016615
X-002699
Y0012365
T09
X-0000725Y002015
X000477Y00187
X001927
X-0027275Y002015
X-003277Y00187
X-004727
Y00237
X-00449791Y0036695
X-00424391
X-00398991
X-00373591
X-003277Y00237
Y00212
X-0027275Y002375
X-0000725
X000477Y00237
Y00212
X001927Y00237
X00168091Y0036695
X00142691
X00117291
X00091891
X011922Y0080114
X012176
X011668
X011414
X01116
X-01396
X-014214
X-014468
X-014722
X-014976
T11
X-000102Y0006225
X000598
X-002698Y0007575
X-003398
T13
X-0113325Y003658
X-0094275Y005563
X-0075225Y003658
X0047225
X0066275Y005563
X0085325Y003658
X010993Y00607
X-013793
T14
X008663Y001344
X009824Y001268
X0Y0
X-0028
X-011463Y001344
X-012624Y001268
X-011198Y00471
X008398
X009083Y007943
X010567Y007842
X006208Y007943
X0
X-0028
X-009008
X-011883
X-013367Y007842
T15
X-0026893Y-0020912
X-0001107Y-0020912
X01172166Y00121986
X01279434Y00154414
X01368066Y00138786
X01083534Y00137614
X0064226Y00063417
X0055226
X00429417Y00046747
X00342483Y00023453
X002282Y-00024283
X00150257Y-00069283
X0005257Y-0014548
X-0033257Y-0014548
X-00430257Y-00069283
X-005082Y-00024283
X-00622483Y00023453
X-00709417Y00046747
X-00831995Y00063545
X-00921995
X-01363534Y00137614
X-01452166Y00121986
X-01559434Y00154414
X-01648066Y00138786
X-01680866Y00326786
X-01592234Y00342414
X-01485037Y0031061
X-01396404Y00326239
X-0127454Y00267161
X-0128714Y00457461
X-01429634Y00513214
X-01518266Y00497586
X-0119736Y00463739
X-0118476Y00273439
X-01082914Y00374021
X-00992914
X-00892624Y00283638
X-0089276Y00473816
X-00992914Y00564747
X-01082914
X-0080276Y00473816
X-00702631Y00444269
X-00612631
X-0061246Y00253116
X-0070246
X-00802624Y00283638
X0033246Y00253116
X00332631Y00444269
X00422631
X0052276Y00473816
X0061276
X00612624Y00283638
X00522624
X0042246Y00253116
X00713124Y00373638
Y00564364
X00803124
Y00373638
X0090476Y00273439
X0099454Y00267161
X01116404Y00326239
X01149634Y00513214
X0100714Y00457461
X0091736Y00463739
X01238266Y00497586
X01205037Y0031061
X01312234Y00342414
X01400866Y00326786
X0102074Y00647261
X0093096Y00653539
X0080326Y00754417
X0071326
X0061286Y00664616
X0052286
X0042286Y00634817
X0033286
X-0061265Y006352
X-0070265
X-0080265Y00665
X-0089265
X-0099305Y007548
X-0108305
X-0121111Y00654139
X-0130089Y00647861
T16
X-00264829Y-00213221
X-00015171Y-00213221
X01177878Y00120979
X01273722Y00155421
X01373778Y00137779
X01077822Y00138621
X0064806Y00063417
X0054646
X00435019Y00048248
X00336881Y00021952
X00233223Y-00021383
X00145234Y-00072183
X00056671Y-00141379
X-00336671Y-00141379
X-00425234Y-00072183
X-00513223Y-00021383
X-00616881Y00021952
X-00715019Y00048248
X-00826195Y00063545
X-00927795
X-01357822Y00138621
X-01457878Y00120979
X-01553722Y00155421
X-01653778Y00137779
X-01686578Y00325779
X-01586522Y00343421
X-01490749Y00309603
X-01390692Y00327246
X-01280326Y00266756
X-01292926Y00457056
X-01423922Y00514221
X-01523978Y00496579
X-01191574Y00464144
X-01088714Y00374021
X-00987114
X-00898424Y00283638
X-0089856Y00473816
X-00987114Y00564747
X-01088714
X-01178974Y00273844
X-00796824Y00283638
X-0070826Y00253116
X-0060666
X-00606831Y00444269
X-00708431
X-0079696Y00473816
X00326831Y00444269
X0032666Y00253116
X0042826
X00516824Y00283638
X00618424
X00707324Y00373638
X0061856Y00473816
X0051696
X00428431Y00444269
X00707324Y00564364
X00808924
Y00373638
X00898974Y00273844
X01000326Y00266756
X01110692Y00327246
X01143922Y00514221
X01012926Y00457056
X00911574Y00464144
X01243978Y00496579
X01306522Y00343421
X01406578Y00325779
X01210749Y00309603
X01026526Y00646856
X00925174Y00653944
X0080906Y00754417
X0070746
X0061866Y00664616
X0051706
X0042866Y00634817
X0032706
X-0060685Y006352
X-0070845
X-0079685Y00665
X-0089845
X-0098725Y007548
X-0108885
X-01205324Y00654544
X-01306676Y00647456
T17
X01169782Y00148198
X01307557Y00201039
X01365682Y00164998
X01111657Y00184239
X0063536Y00088816
X0057186Y00114216
X00416178Y00069496
X00348268Y00077595
X00209524Y-00005736
X00141831Y-00015489
X0002973Y-00132399
X-00033132Y-0015934
X-00255849Y-0018628
X-00282789Y-00123418
X-00423533Y-00043836
X-00465826Y00009911
X-00622574Y00049774
X-00677337Y00090743
X-00838895Y00088945
X-00902395Y00114345
X-0137474Y0016143
X-01441685Y00175418
X-01570639Y0017823
X-01637585Y00192218
X-01670385Y00380218
X-01603439Y0036623
X-01474556Y00364042
X-0140761Y00350055
X-01258532Y00319204
X-01271132Y00509504
X-0144084Y0053703
X-01507785Y00551018
X-01206015Y00488596
X-01193415Y00298296
X-01063314Y00424821
X-00999814Y00399421
Y00590147
X-0087316Y00524617
X-00873024Y00334438
X-00809524Y00309038
X-0068286Y00303916
X-0061936Y00278517
X-00619531Y00469669
X-00683031Y00495069
X-0080966Y00499216
X00352231Y00495069
X0035206Y00303916
X0041556Y00278517
X00542224Y00334438
X00605724Y00309038
X0060586Y00499216
X0054236Y00524617
X00415731Y00469669
X00732724Y00424438
X00796224Y00399038
Y00589764
X00940455Y00513048
X01002029Y0048328
X00989429Y0029298
X00927855Y00322748
X01144528Y00372863
X01202653Y00336823
X01340357Y00389039
X01398482Y00352998
X01235882Y00523798
X01177757Y00559839
X01015629Y0067308
X00954055Y00702848
X0079636Y00779817
X0073286Y00805217
X00732724Y00615164
X0060596Y00690016
X0054246Y00715416
X0041596Y00660217
X0035246Y00685617
X-0061955Y006606
X-0068305Y00686
X-0080955Y006904
X-0087305Y007158
X-0099995Y007802
X-0106345Y008056
X-01063314Y00615547
X-01219765Y00678996
X-01284882Y00699904
T18
X0132375Y001466
X0112785Y001298
X0059726Y00063417
X0038595Y000351
X00189228Y-00046783
X0002075Y-001773
X-0030075
X-00469228Y-00046783
X-0066595Y000351
X-00876995Y00063545
X-0140785Y001298
X-0160375Y001466
X-0163655Y003346
X-01440721Y00318424
X-0147395Y005054
X-0124225Y004606
X-0122965Y002703
X-01037914Y00374021
Y00564747
X-0084776Y00473816
X-00847624Y00283638
X-0065746Y00253116
X-00657631Y00444269
X00377631
X0037746Y00253116
X00567624Y00283638
X0056776Y00473816
X00758124Y00564364
Y00373638
X0096225Y004606
X0094965Y002703
X01160721Y00318424
X0135655Y003346
X0119395Y005054
X0097585Y006504
X0075826Y00754417
X0056786Y00664616
X0037786Y00634817
X-0065765Y006352
X-0084765Y00665
X-0103805Y007548
X-01256Y00651
M30
