%TF.GenerationSoftware,Altium Limited,Altium Designer,26.5.1 (12)*%
G04 Layer_Color=8421504*
G04 Board_Origin=94614144|23134695*
%FSLAX45Y45*%
%MOMM*%
%TF.SameCoordinates,912E6CC1-622E-4C34-84DC-B8291D336671*%
%TF.FilePolarity,Positive*%
%TF.FileFunction,Paste,Top*%
%TF.Part,Single*%
G01*
G75*
%TA.AperFunction,SMDPad,CuDef*%
%ADD11R,2.30000X2.00000*%
%ADD12R,1.50000X1.80000*%
%ADD13R,1.50000X2.99999*%
%ADD14R,1.20000X2.50000*%
G04:AMPARAMS|DCode=15|XSize=0.82mm|YSize=1.35mm|CornerRadius=0.041mm|HoleSize=0mm|Usage=FLASHONLY|Rotation=280.000|XOffset=0mm|YOffset=0mm|HoleType=Round|Shape=RoundedRectangle|*
%AMROUNDEDRECTD15*
21,1,0.82000,1.26800,0,0,280.0*
21,1,0.73800,1.35000,0,0,280.0*
1,1,0.08200,-0.56029,-0.47349*
1,1,0.08200,-0.68844,0.25330*
1,1,0.08200,0.56029,0.47349*
1,1,0.08200,0.68844,-0.25330*
%
%ADD15ROUNDEDRECTD15*%
G04:AMPARAMS|DCode=16|XSize=0.82mm|YSize=1.35mm|CornerRadius=0.041mm|HoleSize=0mm|Usage=FLASHONLY|Rotation=274.000|XOffset=0mm|YOffset=0mm|HoleType=Round|Shape=RoundedRectangle|*
%AMROUNDEDRECTD16*
21,1,0.82000,1.26800,0,0,274.0*
21,1,0.73800,1.35000,0,0,274.0*
1,1,0.08200,-0.60671,-0.41233*
1,1,0.08200,-0.65820,0.32388*
1,1,0.08200,0.60671,0.41233*
1,1,0.08200,0.65820,-0.32388*
%
%ADD16ROUNDEDRECTD16*%
G04:AMPARAMS|DCode=17|XSize=0.82mm|YSize=1.35mm|CornerRadius=0.041mm|HoleSize=0mm|Usage=FLASHONLY|Rotation=270.000|XOffset=0mm|YOffset=0mm|HoleType=Round|Shape=RoundedRectangle|*
%AMROUNDEDRECTD17*
21,1,0.82000,1.26800,0,0,270.0*
21,1,0.73800,1.35000,0,0,270.0*
1,1,0.08200,-0.63400,-0.36900*
1,1,0.08200,-0.63400,0.36900*
1,1,0.08200,0.63400,0.36900*
1,1,0.08200,0.63400,-0.36900*
%
%ADD17ROUNDEDRECTD17*%
G04:AMPARAMS|DCode=18|XSize=0.82mm|YSize=1.35mm|CornerRadius=0.041mm|HoleSize=0mm|Usage=FLASHONLY|Rotation=240.000|XOffset=0mm|YOffset=0mm|HoleType=Round|Shape=RoundedRectangle|*
%AMROUNDEDRECTD18*
21,1,0.82000,1.26800,0,0,240.0*
21,1,0.73800,1.35000,0,0,240.0*
1,1,0.08200,-0.73356,-0.00257*
1,1,0.08200,-0.36456,0.63656*
1,1,0.08200,0.73356,0.00257*
1,1,0.08200,0.36456,-0.63656*
%
%ADD18ROUNDEDRECTD18*%
G04:AMPARAMS|DCode=19|XSize=0.82mm|YSize=1.35mm|CornerRadius=0.041mm|HoleSize=0mm|Usage=FLASHONLY|Rotation=255.000|XOffset=0mm|YOffset=0mm|HoleType=Round|Shape=RoundedRectangle|*
%AMROUNDEDRECTD19*
21,1,0.82000,1.26800,0,0,255.0*
21,1,0.73800,1.35000,0,0,255.0*
1,1,0.08200,-0.70790,-0.19234*
1,1,0.08200,-0.51689,0.52052*
1,1,0.08200,0.70790,0.19234*
1,1,0.08200,0.51689,-0.52052*
%
%ADD19ROUNDEDRECTD19*%
G04:AMPARAMS|DCode=20|XSize=0.82mm|YSize=1.35mm|CornerRadius=0.041mm|HoleSize=0mm|Usage=FLASHONLY|Rotation=225.000|XOffset=0mm|YOffset=0mm|HoleType=Round|Shape=RoundedRectangle|*
%AMROUNDEDRECTD20*
21,1,0.82000,1.26800,0,0,225.0*
21,1,0.73800,1.35000,0,0,225.0*
1,1,0.08200,-0.70923,0.18738*
1,1,0.08200,-0.18738,0.70923*
1,1,0.08200,0.70923,-0.18738*
1,1,0.08200,0.18738,-0.70923*
%
%ADD20ROUNDEDRECTD20*%
G04:AMPARAMS|DCode=21|XSize=0.82mm|YSize=1.35mm|CornerRadius=0.041mm|HoleSize=0mm|Usage=FLASHONLY|Rotation=86.000|XOffset=0mm|YOffset=0mm|HoleType=Round|Shape=RoundedRectangle|*
%AMROUNDEDRECTD21*
21,1,0.82000,1.26800,0,0,86.0*
21,1,0.73800,1.35000,0,0,86.0*
1,1,0.08200,0.65820,0.32388*
1,1,0.08200,0.60671,-0.41233*
1,1,0.08200,-0.65820,-0.32388*
1,1,0.08200,-0.60671,0.41233*
%
%ADD21ROUNDEDRECTD21*%
G04:AMPARAMS|DCode=22|XSize=0.82mm|YSize=1.35mm|CornerRadius=0.041mm|HoleSize=0mm|Usage=FLASHONLY|Rotation=80.000|XOffset=0mm|YOffset=0mm|HoleType=Round|Shape=RoundedRectangle|*
%AMROUNDEDRECTD22*
21,1,0.82000,1.26800,0,0,80.0*
21,1,0.73800,1.35000,0,0,80.0*
1,1,0.08200,0.68844,0.25330*
1,1,0.08200,0.56029,-0.47349*
1,1,0.08200,-0.68844,-0.25330*
1,1,0.08200,-0.56029,0.47349*
%
%ADD22ROUNDEDRECTD22*%
G04:AMPARAMS|DCode=23|XSize=0.82mm|YSize=1.35mm|CornerRadius=0.041mm|HoleSize=0mm|Usage=FLASHONLY|Rotation=105.000|XOffset=0mm|YOffset=0mm|HoleType=Round|Shape=RoundedRectangle|*
%AMROUNDEDRECTD23*
21,1,0.82000,1.26800,0,0,105.0*
21,1,0.73800,1.35000,0,0,105.0*
1,1,0.08200,0.51689,0.52052*
1,1,0.08200,0.70790,-0.19234*
1,1,0.08200,-0.51689,-0.52052*
1,1,0.08200,-0.70790,0.19234*
%
%ADD23ROUNDEDRECTD23*%
G04:AMPARAMS|DCode=24|XSize=0.82mm|YSize=1.35mm|CornerRadius=0.041mm|HoleSize=0mm|Usage=FLASHONLY|Rotation=120.000|XOffset=0mm|YOffset=0mm|HoleType=Round|Shape=RoundedRectangle|*
%AMROUNDEDRECTD24*
21,1,0.82000,1.26800,0,0,120.0*
21,1,0.73800,1.35000,0,0,120.0*
1,1,0.08200,0.36456,0.63656*
1,1,0.08200,0.73356,-0.00257*
1,1,0.08200,-0.36456,-0.63656*
1,1,0.08200,-0.73356,0.00257*
%
%ADD24ROUNDEDRECTD24*%
G04:AMPARAMS|DCode=25|XSize=0.82mm|YSize=1.35mm|CornerRadius=0.041mm|HoleSize=0mm|Usage=FLASHONLY|Rotation=135.000|XOffset=0mm|YOffset=0mm|HoleType=Round|Shape=RoundedRectangle|*
%AMROUNDEDRECTD25*
21,1,0.82000,1.26800,0,0,135.0*
21,1,0.73800,1.35000,0,0,135.0*
1,1,0.08200,0.18738,0.70923*
1,1,0.08200,0.70923,0.18738*
1,1,0.08200,-0.18738,-0.70923*
1,1,0.08200,-0.70923,-0.18738*
%
%ADD25ROUNDEDRECTD25*%
%ADD26R,1.80000X1.50000*%
%ADD27R,1.00000X1.00000*%
G04:AMPARAMS|DCode=28|XSize=2.3mm|YSize=2mm|CornerRadius=0mm|HoleSize=0mm|Usage=FLASHONLY|Rotation=135.000|XOffset=0mm|YOffset=0mm|HoleType=Round|Shape=Rectangle|*
%AMROTATEDRECTD28*
4,1,4,1.52028,-0.10607,0.10607,-1.52028,-1.52028,0.10607,-0.10607,1.52028,1.52028,-0.10607,0.0*
%
%ADD28ROTATEDRECTD28*%

G04:AMPARAMS|DCode=29|XSize=1.8mm|YSize=1.5mm|CornerRadius=0mm|HoleSize=0mm|Usage=FLASHONLY|Rotation=225.000|XOffset=0mm|YOffset=0mm|HoleType=Round|Shape=Rectangle|*
%AMROTATEDRECTD29*
4,1,4,0.10607,1.16673,1.16673,0.10607,-0.10607,-1.16673,-1.16673,-0.10607,0.10607,1.16673,0.0*
%
%ADD29ROTATEDRECTD29*%

G04:AMPARAMS|DCode=30|XSize=2.3mm|YSize=2mm|CornerRadius=0mm|HoleSize=0mm|Usage=FLASHONLY|Rotation=190.000|XOffset=0mm|YOffset=0mm|HoleType=Round|Shape=Rectangle|*
%AMROTATEDRECTD30*
4,1,4,0.95888,1.18450,1.30618,-0.78511,-0.95888,-1.18450,-1.30618,0.78511,0.95888,1.18450,0.0*
%
%ADD30ROTATEDRECTD30*%

G04:AMPARAMS|DCode=31|XSize=2.3mm|YSize=2mm|CornerRadius=0mm|HoleSize=0mm|Usage=FLASHONLY|Rotation=184.000|XOffset=0mm|YOffset=0mm|HoleType=Round|Shape=Rectangle|*
%AMROTATEDRECTD31*
4,1,4,1.07744,1.07779,1.21695,-0.91734,-1.07744,-1.07779,-1.21695,0.91734,1.07744,1.07779,0.0*
%
%ADD31ROTATEDRECTD31*%

G04:AMPARAMS|DCode=32|XSize=2.3mm|YSize=2mm|CornerRadius=0mm|HoleSize=0mm|Usage=FLASHONLY|Rotation=165.000|XOffset=0mm|YOffset=0mm|HoleType=Round|Shape=Rectangle|*
%AMROTATEDRECTD32*
4,1,4,1.36963,0.66828,0.85199,-1.26357,-1.36963,-0.66828,-0.85199,1.26357,1.36963,0.66828,0.0*
%
%ADD32ROTATEDRECTD32*%

G04:AMPARAMS|DCode=33|XSize=2.3mm|YSize=2mm|CornerRadius=0mm|HoleSize=0mm|Usage=FLASHONLY|Rotation=150.000|XOffset=0mm|YOffset=0mm|HoleType=Round|Shape=Rectangle|*
%AMROTATEDRECTD33*
4,1,4,1.49593,0.29103,0.49593,-1.44103,-1.49593,-0.29103,-0.49593,1.44103,1.49593,0.29103,0.0*
%
%ADD33ROTATEDRECTD33*%

G04:AMPARAMS|DCode=34|XSize=2.3mm|YSize=2mm|CornerRadius=0mm|HoleSize=0mm|Usage=FLASHONLY|Rotation=170.000|XOffset=0mm|YOffset=0mm|HoleType=Round|Shape=Rectangle|*
%AMROTATEDRECTD34*
4,1,4,1.30618,0.78511,0.95888,-1.18450,-1.30618,-0.78511,-0.95888,1.18450,1.30618,0.78511,0.0*
%
%ADD34ROTATEDRECTD34*%

G04:AMPARAMS|DCode=35|XSize=2.3mm|YSize=2mm|CornerRadius=0mm|HoleSize=0mm|Usage=FLASHONLY|Rotation=176.000|XOffset=0mm|YOffset=0mm|HoleType=Round|Shape=Rectangle|*
%AMROTATEDRECTD35*
4,1,4,1.21695,0.91734,1.07744,-1.07779,-1.21695,-0.91734,-1.07744,1.07779,1.21695,0.91734,0.0*
%
%ADD35ROTATEDRECTD35*%

G04:AMPARAMS|DCode=36|XSize=2.3mm|YSize=2mm|CornerRadius=0mm|HoleSize=0mm|Usage=FLASHONLY|Rotation=195.000|XOffset=0mm|YOffset=0mm|HoleType=Round|Shape=Rectangle|*
%AMROTATEDRECTD36*
4,1,4,0.85199,1.26357,1.36963,-0.66828,-0.85199,-1.26357,-1.36963,0.66828,0.85199,1.26357,0.0*
%
%ADD36ROTATEDRECTD36*%

G04:AMPARAMS|DCode=37|XSize=2.3mm|YSize=2mm|CornerRadius=0mm|HoleSize=0mm|Usage=FLASHONLY|Rotation=210.000|XOffset=0mm|YOffset=0mm|HoleType=Round|Shape=Rectangle|*
%AMROTATEDRECTD37*
4,1,4,0.49593,1.44103,1.49593,-0.29103,-0.49593,-1.44103,-1.49593,0.29103,0.49593,1.44103,0.0*
%
%ADD37ROTATEDRECTD37*%

G04:AMPARAMS|DCode=38|XSize=2.3mm|YSize=2mm|CornerRadius=0mm|HoleSize=0mm|Usage=FLASHONLY|Rotation=225.000|XOffset=0mm|YOffset=0mm|HoleType=Round|Shape=Rectangle|*
%AMROTATEDRECTD38*
4,1,4,0.10607,1.52028,1.52028,0.10607,-0.10607,-1.52028,-1.52028,-0.10607,0.10607,1.52028,0.0*
%
%ADD38ROTATEDRECTD38*%

G04:AMPARAMS|DCode=39|XSize=1.8mm|YSize=1.5mm|CornerRadius=0mm|HoleSize=0mm|Usage=FLASHONLY|Rotation=274.000|XOffset=0mm|YOffset=0mm|HoleType=Round|Shape=Rectangle|*
%AMROTATEDRECTD39*
4,1,4,-0.81096,0.84549,0.68539,0.95013,0.81096,-0.84549,-0.68539,-0.95013,-0.81096,0.84549,0.0*
%
%ADD39ROTATEDRECTD39*%

G04:AMPARAMS|DCode=40|XSize=1.8mm|YSize=1.5mm|CornerRadius=0mm|HoleSize=0mm|Usage=FLASHONLY|Rotation=280.000|XOffset=0mm|YOffset=0mm|HoleType=Round|Shape=Rectangle|*
%AMROTATEDRECTD40*
4,1,4,-0.89489,0.75609,0.58232,1.01656,0.89489,-0.75609,-0.58232,-1.01656,-0.89489,0.75609,0.0*
%
%ADD40ROTATEDRECTD40*%

G04:AMPARAMS|DCode=41|XSize=1.8mm|YSize=1.5mm|CornerRadius=0mm|HoleSize=0mm|Usage=FLASHONLY|Rotation=190.000|XOffset=0mm|YOffset=0mm|HoleType=Round|Shape=Rectangle|*
%AMROTATEDRECTD41*
4,1,4,0.75609,0.89489,1.01656,-0.58232,-0.75609,-0.89489,-1.01656,0.58232,0.75609,0.89489,0.0*
%
%ADD41ROTATEDRECTD41*%

G04:AMPARAMS|DCode=42|XSize=1.8mm|YSize=1.5mm|CornerRadius=0mm|HoleSize=0mm|Usage=FLASHONLY|Rotation=240.000|XOffset=0mm|YOffset=0mm|HoleType=Round|Shape=Rectangle|*
%AMROTATEDRECTD42*
4,1,4,-0.19952,1.15442,1.09952,0.40442,0.19952,-1.15442,-1.09952,-0.40442,-0.19952,1.15442,0.0*
%
%ADD42ROTATEDRECTD42*%

G04:AMPARAMS|DCode=43|XSize=1.8mm|YSize=1.5mm|CornerRadius=0mm|HoleSize=0mm|Usage=FLASHONLY|Rotation=255.000|XOffset=0mm|YOffset=0mm|HoleType=Round|Shape=Rectangle|*
%AMROTATEDRECTD43*
4,1,4,-0.49151,1.06345,0.95738,0.67522,0.49151,-1.06345,-0.95738,-0.67522,-0.49151,1.06345,0.0*
%
%ADD43ROTATEDRECTD43*%

G04:AMPARAMS|DCode=45|XSize=1.8mm|YSize=1.5mm|CornerRadius=0mm|HoleSize=0mm|Usage=FLASHONLY|Rotation=86.000|XOffset=0mm|YOffset=0mm|HoleType=Round|Shape=Rectangle|*
%AMROTATEDRECTD45*
4,1,4,0.68539,-0.95013,-0.81096,-0.84549,-0.68539,0.95013,0.81096,0.84549,0.68539,-0.95013,0.0*
%
%ADD45ROTATEDRECTD45*%

G04:AMPARAMS|DCode=46|XSize=1.8mm|YSize=1.5mm|CornerRadius=0mm|HoleSize=0mm|Usage=FLASHONLY|Rotation=80.000|XOffset=0mm|YOffset=0mm|HoleType=Round|Shape=Rectangle|*
%AMROTATEDRECTD46*
4,1,4,0.58232,-1.01656,-0.89489,-0.75609,-0.58232,1.01656,0.89489,0.75609,0.58232,-1.01656,0.0*
%
%ADD46ROTATEDRECTD46*%

G04:AMPARAMS|DCode=47|XSize=1.8mm|YSize=1.5mm|CornerRadius=0mm|HoleSize=0mm|Usage=FLASHONLY|Rotation=170.000|XOffset=0mm|YOffset=0mm|HoleType=Round|Shape=Rectangle|*
%AMROTATEDRECTD47*
4,1,4,1.01656,0.58232,0.75609,-0.89489,-1.01656,-0.58232,-0.75609,0.89489,1.01656,0.58232,0.0*
%
%ADD47ROTATEDRECTD47*%

G04:AMPARAMS|DCode=48|XSize=1.8mm|YSize=1.5mm|CornerRadius=0mm|HoleSize=0mm|Usage=FLASHONLY|Rotation=285.000|XOffset=0mm|YOffset=0mm|HoleType=Round|Shape=Rectangle|*
%AMROTATEDRECTD48*
4,1,4,-0.95738,0.67522,0.49151,1.06345,0.95738,-0.67522,-0.49151,-1.06345,-0.95738,0.67522,0.0*
%
%ADD48ROTATEDRECTD48*%

G04:AMPARAMS|DCode=49|XSize=1.8mm|YSize=1.5mm|CornerRadius=0mm|HoleSize=0mm|Usage=FLASHONLY|Rotation=210.000|XOffset=0mm|YOffset=0mm|HoleType=Round|Shape=Rectangle|*
%AMROTATEDRECTD49*
4,1,4,0.40442,1.09952,1.15442,-0.19952,-0.40442,-1.09952,-1.15442,0.19952,0.40442,1.09952,0.0*
%
%ADD49ROTATEDRECTD49*%

D11*
X-5874604Y2789165D02*
D03*
X-5876307Y4700691D02*
D03*
X-5876500Y6610000D02*
D03*
X4478604Y6606165D02*
D03*
X4476307Y4700691D02*
D03*
X4474604Y2789165D02*
D03*
X8282604Y7802165D02*
D03*
X7012604Y8056165D02*
D03*
X-9680500Y7806000D02*
D03*
X-10950500Y8060000D02*
D03*
X-10949139Y6159474D02*
D03*
X-9679139Y5905474D02*
D03*
X-7776499Y6908000D02*
D03*
X-9046499Y7162000D02*
D03*
X-7146500Y6864000D02*
D03*
X-7777604Y4996165D02*
D03*
X-9047604Y5250165D02*
D03*
X-7146307Y4954691D02*
D03*
X-9679139Y3998214D02*
D03*
X-10949139Y4252214D02*
D03*
X-9046243Y3348380D02*
D03*
X-7776243Y3094380D02*
D03*
X-7144604Y3043165D02*
D03*
X-9339949Y1147449D02*
D03*
X-8069949Y893449D02*
D03*
X8281244Y3994380D02*
D03*
X7011244Y4248380D02*
D03*
Y6155639D02*
D03*
X8281244Y5901639D02*
D03*
X5108604Y7158165D02*
D03*
X6378604Y6904165D02*
D03*
X6377604Y4996165D02*
D03*
X5107604Y5250165D02*
D03*
X5106244Y3348380D02*
D03*
X6376244Y3094380D02*
D03*
X3204604Y3043165D02*
D03*
X3206307Y4954691D02*
D03*
X3208604Y6860165D02*
D03*
X6672604Y892165D02*
D03*
X5402604Y1146165D02*
D03*
D12*
X-4730000Y2640000D02*
D03*
X-7420000Y6510000D02*
D03*
Y6850000D02*
D03*
X-4730000Y2980000D02*
D03*
X-7420000Y5290000D02*
D03*
Y4950000D02*
D03*
X-7400000Y3300000D02*
D03*
Y2960000D02*
D03*
X-9330000Y3680000D02*
D03*
Y3340000D02*
D03*
X-9300000Y6830000D02*
D03*
Y7170000D02*
D03*
X-11240000Y7840000D02*
D03*
Y8180000D02*
D03*
X-11230000Y6490000D02*
D03*
Y6150000D02*
D03*
X-9580000Y1500000D02*
D03*
Y1160000D02*
D03*
X6730000Y6500000D02*
D03*
Y6160000D02*
D03*
X6720000Y4250000D02*
D03*
Y4590000D02*
D03*
X4810000Y5590000D02*
D03*
Y5250000D02*
D03*
X4850000Y6820000D02*
D03*
Y7160000D02*
D03*
X6910000Y6880000D02*
D03*
Y7220000D02*
D03*
X2920000Y3050000D02*
D03*
Y3390000D02*
D03*
X5090000Y1500000D02*
D03*
Y1160000D02*
D03*
X2980000Y5290000D02*
D03*
Y4950000D02*
D03*
X4870000Y3240000D02*
D03*
Y2900000D02*
D03*
D13*
X-13954993Y6995013D02*
D03*
X-15185010D02*
D03*
Y6304989D02*
D03*
X-13954993D02*
D03*
X12440007Y7260012D02*
D03*
Y6569988D02*
D03*
X11209989Y7260012D02*
D03*
Y6569988D02*
D03*
D14*
X-14220001Y6985001D02*
D03*
X-14484999D02*
D03*
X-14655000D02*
D03*
X-14920000D02*
D03*
Y6314999D02*
D03*
X-14655000D02*
D03*
X-14484999D02*
D03*
X-14220001D02*
D03*
X12174998Y7249999D02*
D03*
X11475000D02*
D03*
X11739998D02*
D03*
X11910000D02*
D03*
X11739998Y6579998D02*
D03*
X12174998D02*
D03*
X11910000D02*
D03*
X11475000D02*
D03*
D15*
X-15692262Y1089952D02*
D03*
X-13733263Y921952D02*
D03*
X-16020264Y2969952D02*
D03*
X-14061969Y2808197D02*
D03*
X-14394263Y4677952D02*
D03*
X-14904936Y4435593D02*
D03*
X-14572643Y2565838D02*
D03*
X-16530936Y2727593D02*
D03*
X-14243936Y679593D02*
D03*
X-16202936Y847593D02*
D03*
X-14930983Y4583314D02*
D03*
X-14368214Y4530231D02*
D03*
X-14035922Y2660476D02*
D03*
X-14598689Y2713559D02*
D03*
X-14269983Y827314D02*
D03*
X-13707214Y774231D02*
D03*
X-15994215Y2822231D02*
D03*
X-16556982Y2875314D02*
D03*
X-16228983Y995314D02*
D03*
X-15666216Y942231D02*
D03*
D16*
X-11992461Y2292926D02*
D03*
X-12118461Y4195926D02*
D03*
X-12787670Y5906273D02*
D03*
X-12254461Y6093925D02*
D03*
X-12651670Y4008274D02*
D03*
X-12525670Y2105274D02*
D03*
X-12798133Y6055908D02*
D03*
X-12243998Y5944291D02*
D03*
X-12662134Y4157908D02*
D03*
X-12107998Y4046291D02*
D03*
X-11981998Y2143291D02*
D03*
X-12536134Y2254908D02*
D03*
D17*
X-10104447Y3309930D02*
D03*
Y5217190D02*
D03*
X-10105807Y7117716D02*
D03*
X-8493152Y209000D02*
D03*
X-6297807Y2104716D02*
D03*
X-8199447Y2409930D02*
D03*
X-8200807Y4311716D02*
D03*
X-8201807Y6219716D02*
D03*
X-6299510Y4016242D02*
D03*
X-6299703Y5925551D02*
D03*
X7305807Y6967716D02*
D03*
X5401807Y6069716D02*
D03*
X3501807Y5771716D02*
D03*
X7304447Y5067190D02*
D03*
X5400807Y4161716D02*
D03*
X7304447Y3159930D02*
D03*
X5402500Y2262500D02*
D03*
X5695807Y57716D02*
D03*
X3499510Y3866241D02*
D03*
X3497807Y1954716D02*
D03*
X-6844703Y5775551D02*
D03*
X-6844510Y3866242D02*
D03*
X-8746807Y6069716D02*
D03*
X-8745807Y4161716D02*
D03*
X-6842807Y1954716D02*
D03*
X-8744447Y2259930D02*
D03*
X-10650807Y6967716D02*
D03*
X-10649447Y5067190D02*
D03*
Y3159930D02*
D03*
X-9038152Y59000D02*
D03*
X-6299703Y5775551D02*
D03*
X-6844703Y5925551D02*
D03*
X-6844510Y4016242D02*
D03*
X-6299510Y3866242D02*
D03*
X-6297807Y1954716D02*
D03*
X-6842807Y2104716D02*
D03*
X-8744447Y2409930D02*
D03*
X-8199447Y2259930D02*
D03*
X-8200807Y4161716D02*
D03*
X-8745807Y4311716D02*
D03*
X-8746807Y6219716D02*
D03*
X-8201807Y6069716D02*
D03*
X-10105807Y6967716D02*
D03*
X-10650807Y7117716D02*
D03*
X-10649447Y5217190D02*
D03*
X-10104447Y5067190D02*
D03*
Y3159930D02*
D03*
X-10649447Y3309930D02*
D03*
X-9038152Y209000D02*
D03*
X-8493152Y59000D02*
D03*
X4046807Y5771716D02*
D03*
X3501807Y5921716D02*
D03*
X4046807D02*
D03*
X4044510Y4016241D02*
D03*
X3499510D02*
D03*
X4044510Y3866241D02*
D03*
X4042807Y1954716D02*
D03*
X3497807Y2104716D02*
D03*
X4042807D02*
D03*
X5945807Y4311716D02*
D03*
X5400807D02*
D03*
X5945807Y4161716D02*
D03*
X5946807Y6069716D02*
D03*
X5401807Y6219716D02*
D03*
X5946807D02*
D03*
X7850807Y7117716D02*
D03*
X7305807D02*
D03*
X7850807Y6967716D02*
D03*
X7849447Y5067190D02*
D03*
X7304447Y5217189D02*
D03*
X7849447D02*
D03*
Y3309930D02*
D03*
X7304447D02*
D03*
X7849447Y3159930D02*
D03*
X6240807Y57716D02*
D03*
X5695807Y207716D02*
D03*
X6240807D02*
D03*
X5947500Y2262500D02*
D03*
X5402500Y2412500D02*
D03*
X5947500D02*
D03*
D18*
X-4669535Y-977810D02*
D03*
X-5216519Y-835213D02*
D03*
X-4744536Y-1107714D02*
D03*
X-5141519Y-705310D02*
D03*
D19*
X-6505533Y-135718D02*
D03*
X-7070785Y-139551D02*
D03*
X-7031962Y5338D02*
D03*
X-6544355Y-280607D02*
D03*
D20*
X-3117520Y-2271494D02*
D03*
X-3608959Y-1992187D02*
D03*
X-3502893Y-1886120D02*
D03*
X-3223586Y-2377560D02*
D03*
D21*
X9443998Y5944291D02*
D03*
X9307998Y4046291D02*
D03*
X9181998Y2143291D02*
D03*
X9987670Y5906273D02*
D03*
X9454461Y6093925D02*
D03*
X9998134Y6055908D02*
D03*
X9862134Y4157908D02*
D03*
X9318461Y4195925D02*
D03*
X9851670Y4008273D02*
D03*
X9725670Y2105273D02*
D03*
X9192461Y2292925D02*
D03*
X9736134Y2254908D02*
D03*
D22*
X13194215Y2822231D02*
D03*
X11568215Y4530231D02*
D03*
X12866216Y942231D02*
D03*
X11235921Y2660476D02*
D03*
X10907215Y774231D02*
D03*
X12130983Y4583314D02*
D03*
X11594262Y4677952D02*
D03*
X12104935Y4435593D02*
D03*
X11772642Y2565838D02*
D03*
X11261969Y2808197D02*
D03*
X11798689Y2713559D02*
D03*
X11469983Y827314D02*
D03*
X10933262Y921952D02*
D03*
X11443935Y679593D02*
D03*
X13730936Y2727593D02*
D03*
X13220262Y2969952D02*
D03*
X13756982Y2875314D02*
D03*
X13428983Y995314D02*
D03*
X12892262Y1089952D02*
D03*
X13402934Y847593D02*
D03*
D23*
X3745461Y-279599D02*
D03*
X4233067Y6346D02*
D03*
X3706638Y-134710D02*
D03*
X4271890Y-138543D02*
D03*
D24*
X1944536Y-1107714D02*
D03*
X2416520Y-835214D02*
D03*
X1869536Y-977810D02*
D03*
X2341520Y-705310D02*
D03*
D25*
X423586Y-2377560D02*
D03*
X702893Y-1886121D02*
D03*
X317520Y-2271494D02*
D03*
X808959Y-1992187D02*
D03*
D26*
X1920000Y1620000D02*
D03*
X-8710000Y5560000D02*
D03*
X-9050000D02*
D03*
X-10420000Y4590000D02*
D03*
X-10760000D02*
D03*
X2260000Y1620000D02*
D03*
X3560000Y7150000D02*
D03*
X3220000D02*
D03*
D27*
X-14655000Y6564999D02*
D03*
X-14484999D02*
D03*
Y6735001D02*
D03*
X-14655000D02*
D03*
X11739998Y6829998D02*
D03*
X11910000D02*
D03*
Y7000000D02*
D03*
X11739998D02*
D03*
D28*
X-2330091Y-2085541D02*
D03*
X-3048512Y-1007910D02*
D03*
D29*
X-3250208Y-820208D02*
D03*
X-3009792Y-579792D02*
D03*
X-760208Y-1590208D02*
D03*
X-519792Y-1349792D02*
D03*
D30*
X-15392935Y1841634D02*
D03*
X-16687749Y1871242D02*
D03*
X-17015749Y3751242D02*
D03*
X-15720937Y3721634D02*
D03*
X-13433936Y1673634D02*
D03*
X-14728748Y1703242D02*
D03*
X-15057455Y3589487D02*
D03*
X-13762642Y3559879D02*
D03*
X-14094936Y5429634D02*
D03*
X-15389748Y5459242D02*
D03*
D31*
X-12900826Y3173991D02*
D03*
X-11616202Y3009201D02*
D03*
X-11742202Y4912201D02*
D03*
X-13026826Y5076991D02*
D03*
X-13164326Y6980991D02*
D03*
X-11879702Y6816201D02*
D03*
D32*
X-5916576Y419035D02*
D03*
X-7077562Y993081D02*
D03*
D33*
X-4929919Y260578D02*
D03*
X-3957067Y-594392D02*
D03*
D34*
X12765067Y2069201D02*
D03*
X13971666Y1598527D02*
D03*
X12012667Y1430527D02*
D03*
X10806068Y1901201D02*
D03*
X11134774Y3787446D02*
D03*
X12341373Y3316771D02*
D03*
X11467067Y5657201D02*
D03*
X12673667Y5186527D02*
D03*
X13093068Y3949201D02*
D03*
X14299667Y3478527D02*
D03*
D35*
X10212792Y2911542D02*
D03*
X8963603Y3253514D02*
D03*
X10474792Y6712542D02*
D03*
X9225603Y7054514D02*
D03*
X9089603Y5156514D02*
D03*
X10338792Y4814542D02*
D03*
D36*
X3176407Y698027D02*
D03*
X4468873Y781382D02*
D03*
D37*
X2369503Y105608D02*
D03*
X1142650Y-309421D02*
D03*
D38*
X-557590Y-1814012D02*
D03*
X520041Y-1095592D02*
D03*
D39*
X-13521858Y7289586D02*
D03*
X-13498141Y6950414D02*
D03*
X-13331859Y5389586D02*
D03*
X-13308142Y5050414D02*
D03*
X-13201859Y3489586D02*
D03*
X-13178142Y3150414D02*
D03*
D40*
X-15739520Y5737417D02*
D03*
X-15680479Y5402583D02*
D03*
X-15349519Y3687417D02*
D03*
X-15290480Y3352583D02*
D03*
X-17358560Y4042252D02*
D03*
X-17299519Y3707417D02*
D03*
X-16900481Y1482583D02*
D03*
X-16959520Y1817417D02*
D03*
D41*
X-14442583Y2049520D02*
D03*
X-14777417Y1990480D02*
D03*
D42*
X-5175000Y392776D02*
D03*
X-5005000Y687224D02*
D03*
D43*
X-7343999Y1055793D02*
D03*
X-7256001Y1384207D02*
D03*
D45*
X8911858Y7089586D02*
D03*
X8888141Y6750414D02*
D03*
X8811858Y5529586D02*
D03*
X8788141Y5190414D02*
D03*
X8661858Y2959586D02*
D03*
X8638141Y2620414D02*
D03*
D46*
X11140480Y5142583D02*
D03*
X11199520Y5477417D02*
D03*
X10919520Y4167417D02*
D03*
X10860480Y3832583D02*
D03*
X10579520Y1937417D02*
D03*
X10520480Y1602583D02*
D03*
D47*
X13142583Y4249520D02*
D03*
X13477417Y4190480D02*
D03*
X12822583Y2379520D02*
D03*
X13157417Y2320480D02*
D03*
D48*
X2776001Y954207D02*
D03*
X2863999Y625793D02*
D03*
D49*
X1307224Y115000D02*
D03*
X1012776Y-55000D02*
D03*
%TF.MD5,1e27b322c00b0108b7f76ef1bbf88329*%
M02*
