%TF.GenerationSoftware,Altium Limited,Altium Designer,26.5.1 (12)*%
G04 Layer_Color=8388736*
G04 Board_Origin=94614144|23134695*
%FSLAX45Y45*%
%MOMM*%
%TF.SameCoordinates,6F9A6B89-FC82-4793-93F2-71FF12A358F7*%
%TF.FilePolarity,Negative*%
%TF.FileFunction,Soldermask,Top*%
%TF.Part,Single*%
G01*
G75*
%TA.AperFunction,SMDPad,CuDef*%
G04:AMPARAMS|DCode=11|XSize=2.3mm|YSize=2mm|CornerRadius=0mm|HoleSize=0mm|Usage=FLASHONLY|Rotation=135.000|XOffset=0mm|YOffset=0mm|HoleType=Round|Shape=Rectangle|*
%AMROTATEDRECTD11*
4,1,4,1.52028,-0.10607,0.10607,-1.52028,-1.52028,0.10607,-0.10607,1.52028,1.52028,-0.10607,0.0*
%
%ADD11ROTATEDRECTD11*%

G04:AMPARAMS|DCode=12|XSize=1.8mm|YSize=1.5mm|CornerRadius=0mm|HoleSize=0mm|Usage=FLASHONLY|Rotation=225.000|XOffset=0mm|YOffset=0mm|HoleType=Round|Shape=Rectangle|*
%AMROTATEDRECTD12*
4,1,4,0.10607,1.16673,1.16673,0.10607,-0.10607,-1.16673,-1.16673,-0.10607,0.10607,1.16673,0.0*
%
%ADD12ROTATEDRECTD12*%

%ADD13R,2.30000X2.00000*%
G04:AMPARAMS|DCode=14|XSize=2.3mm|YSize=2mm|CornerRadius=0mm|HoleSize=0mm|Usage=FLASHONLY|Rotation=190.000|XOffset=0mm|YOffset=0mm|HoleType=Round|Shape=Rectangle|*
%AMROTATEDRECTD14*
4,1,4,0.95888,1.18450,1.30618,-0.78511,-0.95888,-1.18450,-1.30618,0.78511,0.95888,1.18450,0.0*
%
%ADD14ROTATEDRECTD14*%

G04:AMPARAMS|DCode=15|XSize=2.3mm|YSize=2mm|CornerRadius=0mm|HoleSize=0mm|Usage=FLASHONLY|Rotation=184.000|XOffset=0mm|YOffset=0mm|HoleType=Round|Shape=Rectangle|*
%AMROTATEDRECTD15*
4,1,4,1.07744,1.07779,1.21695,-0.91734,-1.07744,-1.07779,-1.21695,0.91734,1.07744,1.07779,0.0*
%
%ADD15ROTATEDRECTD15*%

G04:AMPARAMS|DCode=16|XSize=2.3mm|YSize=2mm|CornerRadius=0mm|HoleSize=0mm|Usage=FLASHONLY|Rotation=165.000|XOffset=0mm|YOffset=0mm|HoleType=Round|Shape=Rectangle|*
%AMROTATEDRECTD16*
4,1,4,1.36963,0.66828,0.85199,-1.26357,-1.36963,-0.66828,-0.85199,1.26357,1.36963,0.66828,0.0*
%
%ADD16ROTATEDRECTD16*%

G04:AMPARAMS|DCode=17|XSize=2.3mm|YSize=2mm|CornerRadius=0mm|HoleSize=0mm|Usage=FLASHONLY|Rotation=150.000|XOffset=0mm|YOffset=0mm|HoleType=Round|Shape=Rectangle|*
%AMROTATEDRECTD17*
4,1,4,1.49593,0.29103,0.49593,-1.44103,-1.49593,-0.29103,-0.49593,1.44103,1.49593,0.29103,0.0*
%
%ADD17ROTATEDRECTD17*%

G04:AMPARAMS|DCode=18|XSize=2.3mm|YSize=2mm|CornerRadius=0mm|HoleSize=0mm|Usage=FLASHONLY|Rotation=170.000|XOffset=0mm|YOffset=0mm|HoleType=Round|Shape=Rectangle|*
%AMROTATEDRECTD18*
4,1,4,1.30618,0.78511,0.95888,-1.18450,-1.30618,-0.78511,-0.95888,1.18450,1.30618,0.78511,0.0*
%
%ADD18ROTATEDRECTD18*%

G04:AMPARAMS|DCode=19|XSize=2.3mm|YSize=2mm|CornerRadius=0mm|HoleSize=0mm|Usage=FLASHONLY|Rotation=176.000|XOffset=0mm|YOffset=0mm|HoleType=Round|Shape=Rectangle|*
%AMROTATEDRECTD19*
4,1,4,1.21695,0.91734,1.07744,-1.07779,-1.21695,-0.91734,-1.07744,1.07779,1.21695,0.91734,0.0*
%
%ADD19ROTATEDRECTD19*%

G04:AMPARAMS|DCode=20|XSize=2.3mm|YSize=2mm|CornerRadius=0mm|HoleSize=0mm|Usage=FLASHONLY|Rotation=195.000|XOffset=0mm|YOffset=0mm|HoleType=Round|Shape=Rectangle|*
%AMROTATEDRECTD20*
4,1,4,0.85199,1.26357,1.36963,-0.66828,-0.85199,-1.26357,-1.36963,0.66828,0.85199,1.26357,0.0*
%
%ADD20ROTATEDRECTD20*%

G04:AMPARAMS|DCode=21|XSize=2.3mm|YSize=2mm|CornerRadius=0mm|HoleSize=0mm|Usage=FLASHONLY|Rotation=210.000|XOffset=0mm|YOffset=0mm|HoleType=Round|Shape=Rectangle|*
%AMROTATEDRECTD21*
4,1,4,0.49593,1.44103,1.49593,-0.29103,-0.49593,-1.44103,-1.49593,0.29103,0.49593,1.44103,0.0*
%
%ADD21ROTATEDRECTD21*%

G04:AMPARAMS|DCode=22|XSize=2.3mm|YSize=2mm|CornerRadius=0mm|HoleSize=0mm|Usage=FLASHONLY|Rotation=225.000|XOffset=0mm|YOffset=0mm|HoleType=Round|Shape=Rectangle|*
%AMROTATEDRECTD22*
4,1,4,0.10607,1.52028,1.52028,0.10607,-0.10607,-1.52028,-1.52028,-0.10607,0.10607,1.52028,0.0*
%
%ADD22ROTATEDRECTD22*%

%ADD23R,1.50000X1.80000*%
G04:AMPARAMS|DCode=24|XSize=0.82mm|YSize=1.35mm|CornerRadius=0.041mm|HoleSize=0mm|Usage=FLASHONLY|Rotation=270.000|XOffset=0mm|YOffset=0mm|HoleType=Round|Shape=RoundedRectangle|*
%AMROUNDEDRECTD24*
21,1,0.82000,1.26800,0,0,270.0*
21,1,0.73800,1.35000,0,0,270.0*
1,1,0.08200,-0.63400,-0.36900*
1,1,0.08200,-0.63400,0.36900*
1,1,0.08200,0.63400,0.36900*
1,1,0.08200,0.63400,-0.36900*
%
%ADD24ROUNDEDRECTD24*%
%ADD25R,1.80000X1.50000*%
G04:AMPARAMS|DCode=26|XSize=0.82mm|YSize=1.35mm|CornerRadius=0.041mm|HoleSize=0mm|Usage=FLASHONLY|Rotation=94.000|XOffset=0mm|YOffset=0mm|HoleType=Round|Shape=RoundedRectangle|*
%AMROUNDEDRECTD26*
21,1,0.82000,1.26800,0,0,94.0*
21,1,0.73800,1.35000,0,0,94.0*
1,1,0.08200,0.60671,0.41233*
1,1,0.08200,0.65820,-0.32388*
1,1,0.08200,-0.60671,-0.41233*
1,1,0.08200,-0.65820,0.32388*
%
%ADD26ROUNDEDRECTD26*%
G04:AMPARAMS|DCode=27|XSize=1.8mm|YSize=1.5mm|CornerRadius=0mm|HoleSize=0mm|Usage=FLASHONLY|Rotation=274.000|XOffset=0mm|YOffset=0mm|HoleType=Round|Shape=Rectangle|*
%AMROTATEDRECTD27*
4,1,4,-0.81096,0.84549,0.68539,0.95013,0.81096,-0.84549,-0.68539,-0.95013,-0.81096,0.84549,0.0*
%
%ADD27ROTATEDRECTD27*%

G04:AMPARAMS|DCode=28|XSize=1.8mm|YSize=1.5mm|CornerRadius=0mm|HoleSize=0mm|Usage=FLASHONLY|Rotation=280.000|XOffset=0mm|YOffset=0mm|HoleType=Round|Shape=Rectangle|*
%AMROTATEDRECTD28*
4,1,4,-0.89489,0.75609,0.58232,1.01656,0.89489,-0.75609,-0.58232,-1.01656,-0.89489,0.75609,0.0*
%
%ADD28ROTATEDRECTD28*%

G04:AMPARAMS|DCode=29|XSize=0.82mm|YSize=1.35mm|CornerRadius=0.041mm|HoleSize=0mm|Usage=FLASHONLY|Rotation=280.000|XOffset=0mm|YOffset=0mm|HoleType=Round|Shape=RoundedRectangle|*
%AMROUNDEDRECTD29*
21,1,0.82000,1.26800,0,0,280.0*
21,1,0.73800,1.35000,0,0,280.0*
1,1,0.08200,-0.56029,-0.47349*
1,1,0.08200,-0.68844,0.25330*
1,1,0.08200,0.56029,0.47349*
1,1,0.08200,0.68844,-0.25330*
%
%ADD29ROUNDEDRECTD29*%
G04:AMPARAMS|DCode=30|XSize=1.8mm|YSize=1.5mm|CornerRadius=0mm|HoleSize=0mm|Usage=FLASHONLY|Rotation=190.000|XOffset=0mm|YOffset=0mm|HoleType=Round|Shape=Rectangle|*
%AMROTATEDRECTD30*
4,1,4,0.75609,0.89489,1.01656,-0.58232,-0.75609,-0.89489,-1.01656,0.58232,0.75609,0.89489,0.0*
%
%ADD30ROTATEDRECTD30*%

G04:AMPARAMS|DCode=31|XSize=0.82mm|YSize=1.35mm|CornerRadius=0.041mm|HoleSize=0mm|Usage=FLASHONLY|Rotation=255.000|XOffset=0mm|YOffset=0mm|HoleType=Round|Shape=RoundedRectangle|*
%AMROUNDEDRECTD31*
21,1,0.82000,1.26800,0,0,255.0*
21,1,0.73800,1.35000,0,0,255.0*
1,1,0.08200,-0.70790,-0.19234*
1,1,0.08200,-0.51689,0.52052*
1,1,0.08200,0.70790,0.19234*
1,1,0.08200,0.51689,-0.52052*
%
%ADD31ROUNDEDRECTD31*%
G04:AMPARAMS|DCode=32|XSize=0.82mm|YSize=1.35mm|CornerRadius=0.041mm|HoleSize=0mm|Usage=FLASHONLY|Rotation=240.000|XOffset=0mm|YOffset=0mm|HoleType=Round|Shape=RoundedRectangle|*
%AMROUNDEDRECTD32*
21,1,0.82000,1.26800,0,0,240.0*
21,1,0.73800,1.35000,0,0,240.0*
1,1,0.08200,-0.73356,-0.00257*
1,1,0.08200,-0.36456,0.63656*
1,1,0.08200,0.73356,0.00257*
1,1,0.08200,0.36456,-0.63656*
%
%ADD32ROUNDEDRECTD32*%
G04:AMPARAMS|DCode=33|XSize=1.8mm|YSize=1.5mm|CornerRadius=0mm|HoleSize=0mm|Usage=FLASHONLY|Rotation=240.000|XOffset=0mm|YOffset=0mm|HoleType=Round|Shape=Rectangle|*
%AMROTATEDRECTD33*
4,1,4,-0.19952,1.15442,1.09952,0.40442,0.19952,-1.15442,-1.09952,-0.40442,-0.19952,1.15442,0.0*
%
%ADD33ROTATEDRECTD33*%

G04:AMPARAMS|DCode=34|XSize=0.82mm|YSize=1.35mm|CornerRadius=0.041mm|HoleSize=0mm|Usage=FLASHONLY|Rotation=225.000|XOffset=0mm|YOffset=0mm|HoleType=Round|Shape=RoundedRectangle|*
%AMROUNDEDRECTD34*
21,1,0.82000,1.26800,0,0,225.0*
21,1,0.73800,1.35000,0,0,225.0*
1,1,0.08200,-0.70923,0.18738*
1,1,0.08200,-0.18738,0.70923*
1,1,0.08200,0.70923,-0.18738*
1,1,0.08200,0.18738,-0.70923*
%
%ADD34ROUNDEDRECTD34*%
G04:AMPARAMS|DCode=35|XSize=1.8mm|YSize=1.5mm|CornerRadius=0mm|HoleSize=0mm|Usage=FLASHONLY|Rotation=255.000|XOffset=0mm|YOffset=0mm|HoleType=Round|Shape=Rectangle|*
%AMROTATEDRECTD35*
4,1,4,-0.49151,1.06345,0.95738,0.67522,0.49151,-1.06345,-0.95738,-0.67522,-0.49151,1.06345,0.0*
%
%ADD35ROTATEDRECTD35*%

%ADD36P,0.42426X4X165.0*%
G04:AMPARAMS|DCode=37|XSize=0.82mm|YSize=1.35mm|CornerRadius=0.041mm|HoleSize=0mm|Usage=FLASHONLY|Rotation=86.000|XOffset=0mm|YOffset=0mm|HoleType=Round|Shape=RoundedRectangle|*
%AMROUNDEDRECTD37*
21,1,0.82000,1.26800,0,0,86.0*
21,1,0.73800,1.35000,0,0,86.0*
1,1,0.08200,0.65820,0.32388*
1,1,0.08200,0.60671,-0.41233*
1,1,0.08200,-0.65820,-0.32388*
1,1,0.08200,-0.60671,0.41233*
%
%ADD37ROUNDEDRECTD37*%
G04:AMPARAMS|DCode=38|XSize=1.8mm|YSize=1.5mm|CornerRadius=0mm|HoleSize=0mm|Usage=FLASHONLY|Rotation=86.000|XOffset=0mm|YOffset=0mm|HoleType=Round|Shape=Rectangle|*
%AMROTATEDRECTD38*
4,1,4,0.68539,-0.95013,-0.81096,-0.84549,-0.68539,0.95013,0.81096,0.84549,0.68539,-0.95013,0.0*
%
%ADD38ROTATEDRECTD38*%

G04:AMPARAMS|DCode=39|XSize=1.8mm|YSize=1.5mm|CornerRadius=0mm|HoleSize=0mm|Usage=FLASHONLY|Rotation=80.000|XOffset=0mm|YOffset=0mm|HoleType=Round|Shape=Rectangle|*
%AMROTATEDRECTD39*
4,1,4,0.58232,-1.01656,-0.89489,-0.75609,-0.58232,1.01656,0.89489,0.75609,0.58232,-1.01656,0.0*
%
%ADD39ROTATEDRECTD39*%

G04:AMPARAMS|DCode=40|XSize=0.82mm|YSize=1.35mm|CornerRadius=0.041mm|HoleSize=0mm|Usage=FLASHONLY|Rotation=80.000|XOffset=0mm|YOffset=0mm|HoleType=Round|Shape=RoundedRectangle|*
%AMROUNDEDRECTD40*
21,1,0.82000,1.26800,0,0,80.0*
21,1,0.73800,1.35000,0,0,80.0*
1,1,0.08200,0.68844,0.25330*
1,1,0.08200,0.56029,-0.47349*
1,1,0.08200,-0.68844,-0.25330*
1,1,0.08200,-0.56029,0.47349*
%
%ADD40ROUNDEDRECTD40*%
G04:AMPARAMS|DCode=41|XSize=1.8mm|YSize=1.5mm|CornerRadius=0mm|HoleSize=0mm|Usage=FLASHONLY|Rotation=170.000|XOffset=0mm|YOffset=0mm|HoleType=Round|Shape=Rectangle|*
%AMROTATEDRECTD41*
4,1,4,1.01656,0.58232,0.75609,-0.89489,-1.01656,-0.58232,-0.75609,0.89489,1.01656,0.58232,0.0*
%
%ADD41ROTATEDRECTD41*%

G04:AMPARAMS|DCode=42|XSize=1.8mm|YSize=1.5mm|CornerRadius=0mm|HoleSize=0mm|Usage=FLASHONLY|Rotation=285.000|XOffset=0mm|YOffset=0mm|HoleType=Round|Shape=Rectangle|*
%AMROTATEDRECTD42*
4,1,4,-0.95738,0.67522,0.49151,1.06345,0.95738,-0.67522,-0.49151,-1.06345,-0.95738,0.67522,0.0*
%
%ADD42ROTATEDRECTD42*%

G04:AMPARAMS|DCode=43|XSize=0.82mm|YSize=1.35mm|CornerRadius=0.041mm|HoleSize=0mm|Usage=FLASHONLY|Rotation=105.000|XOffset=0mm|YOffset=0mm|HoleType=Round|Shape=RoundedRectangle|*
%AMROUNDEDRECTD43*
21,1,0.82000,1.26800,0,0,105.0*
21,1,0.73800,1.35000,0,0,105.0*
1,1,0.08200,0.51689,0.52052*
1,1,0.08200,0.70790,-0.19234*
1,1,0.08200,-0.51689,-0.52052*
1,1,0.08200,-0.70790,0.19234*
%
%ADD43ROUNDEDRECTD43*%
G04:AMPARAMS|DCode=44|XSize=0.82mm|YSize=1.35mm|CornerRadius=0.041mm|HoleSize=0mm|Usage=FLASHONLY|Rotation=120.000|XOffset=0mm|YOffset=0mm|HoleType=Round|Shape=RoundedRectangle|*
%AMROUNDEDRECTD44*
21,1,0.82000,1.26800,0,0,120.0*
21,1,0.73800,1.35000,0,0,120.0*
1,1,0.08200,0.36456,0.63656*
1,1,0.08200,0.73356,-0.00257*
1,1,0.08200,-0.36456,-0.63656*
1,1,0.08200,-0.73356,0.00257*
%
%ADD44ROUNDEDRECTD44*%
G04:AMPARAMS|DCode=45|XSize=0.82mm|YSize=1.35mm|CornerRadius=0.041mm|HoleSize=0mm|Usage=FLASHONLY|Rotation=135.000|XOffset=0mm|YOffset=0mm|HoleType=Round|Shape=RoundedRectangle|*
%AMROUNDEDRECTD45*
21,1,0.82000,1.26800,0,0,135.0*
21,1,0.73800,1.35000,0,0,135.0*
1,1,0.08200,0.18738,0.70923*
1,1,0.08200,0.70923,0.18738*
1,1,0.08200,-0.18738,-0.70923*
1,1,0.08200,-0.70923,-0.18738*
%
%ADD45ROUNDEDRECTD45*%
G04:AMPARAMS|DCode=46|XSize=1.8mm|YSize=1.5mm|CornerRadius=0mm|HoleSize=0mm|Usage=FLASHONLY|Rotation=210.000|XOffset=0mm|YOffset=0mm|HoleType=Round|Shape=Rectangle|*
%AMROTATEDRECTD46*
4,1,4,0.40442,1.09952,1.15442,-0.19952,-0.40442,-1.09952,-1.15442,0.19952,0.40442,1.09952,0.0*
%
%ADD46ROTATEDRECTD46*%

%ADD47P,0.42426X4X285.0*%
%TA.AperFunction,ComponentPad*%
G04:AMPARAMS|DCode=48|XSize=1.2mm|YSize=1.75mm|CornerRadius=0.6mm|HoleSize=0mm|Usage=FLASHONLY|Rotation=90.000|XOffset=0mm|YOffset=0mm|HoleType=Round|Shape=RoundedRectangle|*
%AMROUNDEDRECTD48*
21,1,1.20000,0.55000,0,0,90.0*
21,1,0.00000,1.75000,0,0,90.0*
1,1,1.20000,0.27500,0.00000*
1,1,1.20000,0.27500,0.00000*
1,1,1.20000,-0.27500,0.00000*
1,1,1.20000,-0.27500,0.00000*
%
%ADD48ROUNDEDRECTD48*%
G04:AMPARAMS|DCode=53|XSize=1.7mm|YSize=1.7mm|CornerRadius=0.85mm|HoleSize=0mm|Usage=FLASHONLY|Rotation=90.000|XOffset=0mm|YOffset=0mm|HoleType=Round|Shape=RoundedRectangle|*
%AMROUNDEDRECTD53*
21,1,1.70000,0.00000,0,0,90.0*
21,1,0.00000,1.70000,0,0,90.0*
1,1,1.70000,0.00000,0.00000*
1,1,1.70000,0.00000,0.00000*
1,1,1.70000,0.00000,0.00000*
1,1,1.70000,0.00000,0.00000*
%
%ADD53ROUNDEDRECTD53*%
%ADD54C,1.70000*%
%ADD55C,1.52400*%
%ADD56C,3.20000*%
G04:AMPARAMS|DCode=57|XSize=2mm|YSize=2mm|CornerRadius=0.07mm|HoleSize=0mm|Usage=FLASHONLY|Rotation=270.000|XOffset=0mm|YOffset=0mm|HoleType=Round|Shape=RoundedRectangle|*
%AMROUNDEDRECTD57*
21,1,2.00000,1.86000,0,0,270.0*
21,1,1.86000,2.00000,0,0,270.0*
1,1,0.14000,-0.93000,-0.93000*
1,1,0.14000,-0.93000,0.93000*
1,1,0.14000,0.93000,0.93000*
1,1,0.14000,0.93000,-0.93000*
%
%ADD57ROUNDEDRECTD57*%
%ADD58C,2.00000*%
%ADD59C,1.20000*%
G04:AMPARAMS|DCode=60|XSize=1.7mm|YSize=2.5mm|CornerRadius=0.85mm|HoleSize=0mm|Usage=FLASHONLY|Rotation=90.000|XOffset=0mm|YOffset=0mm|HoleType=Round|Shape=RoundedRectangle|*
%AMROUNDEDRECTD60*
21,1,1.70000,0.80000,0,0,90.0*
21,1,0.00000,2.50000,0,0,90.0*
1,1,1.70000,0.40000,0.00000*
1,1,1.70000,0.40000,0.00000*
1,1,1.70000,-0.40000,0.00000*
1,1,1.70000,-0.40000,0.00000*
%
%ADD60ROUNDEDRECTD60*%
G04:AMPARAMS|DCode=61|XSize=2mm|YSize=1.6mm|CornerRadius=0.8mm|HoleSize=0mm|Usage=FLASHONLY|Rotation=270.000|XOffset=0mm|YOffset=0mm|HoleType=Round|Shape=RoundedRectangle|*
%AMROUNDEDRECTD61*
21,1,2.00000,0.00000,0,0,270.0*
21,1,0.40000,1.60000,0,0,270.0*
1,1,1.60000,0.00000,-0.20000*
1,1,1.60000,0.00000,0.20000*
1,1,1.60000,0.00000,0.20000*
1,1,1.60000,0.00000,-0.20000*
%
%ADD61ROUNDEDRECTD61*%
%ADD62R,3.20000X2.00000*%
%ADD63C,2.20000*%
%ADD64R,2.20000X2.20000*%
%ADD65C,4.40000*%
%ADD66R,1.52400X1.52400*%
%ADD67C,1.80000*%
%ADD68C,0.90000*%
G04:AMPARAMS|DCode=69|XSize=0.6mm|YSize=1.8mm|CornerRadius=0.075mm|HoleSize=0mm|Usage=FLASHONLY|Rotation=90.000|XOffset=0mm|YOffset=0mm|HoleType=Round|Shape=RoundedRectangle|*
%AMROUNDEDRECTD69*
21,1,0.60000,1.65000,0,0,90.0*
21,1,0.45000,1.80000,0,0,90.0*
1,1,0.15000,0.82500,0.22500*
1,1,0.15000,0.82500,-0.22500*
1,1,0.15000,-0.82500,-0.22500*
1,1,0.15000,-0.82500,0.22500*
%
%ADD69ROUNDEDRECTD69*%
G04:AMPARAMS|DCode=70|XSize=1.3mm|YSize=0.9mm|CornerRadius=0.1125mm|HoleSize=0mm|Usage=FLASHONLY|Rotation=90.000|XOffset=0mm|YOffset=0mm|HoleType=Round|Shape=RoundedRectangle|*
%AMROUNDEDRECTD70*
21,1,1.30000,0.67500,0,0,90.0*
21,1,1.07500,0.90000,0,0,90.0*
1,1,0.22500,0.33750,0.53750*
1,1,0.22500,0.33750,-0.53750*
1,1,0.22500,-0.33750,-0.53750*
1,1,0.22500,-0.33750,0.53750*
%
%ADD70ROUNDEDRECTD70*%
G04:AMPARAMS|DCode=71|XSize=0.75mm|YSize=1.8mm|CornerRadius=0.09375mm|HoleSize=0mm|Usage=FLASHONLY|Rotation=90.000|XOffset=0mm|YOffset=0mm|HoleType=Round|Shape=RoundedRectangle|*
%AMROUNDEDRECTD71*
21,1,0.75000,1.61250,0,0,90.0*
21,1,0.56250,1.80000,0,0,90.0*
1,1,0.18750,0.80625,0.28125*
1,1,0.18750,0.80625,-0.28125*
1,1,0.18750,-0.80625,-0.28125*
1,1,0.18750,-0.80625,0.28125*
%
%ADD71ROUNDEDRECTD71*%
%ADD78C,3.20320*%
%TA.AperFunction,WasherPad*%
%ADD79C,1.90320*%
%ADD80C,2.10320*%
%ADD81C,4.30320*%
%TA.AperFunction,ViaPad*%
%ADD82C,1.47320*%
G36*
X-10168551Y2096792D02*
X-10168342Y2096797D01*
X-10168695D01*
X-10168551Y2096792D01*
D02*
G37*
G36*
X-4083798Y-1331412D02*
X-4133798Y-1418014D01*
X-4223750Y-1423816D01*
X-4263702Y-1343014D01*
X-4213702Y-1256412D01*
X-4083798Y-1331412D01*
D02*
G37*
G36*
X-4238750Y-1449796D02*
X-4148798Y-1443995D01*
X-4206298Y-1543588D01*
X-4336202Y-1468588D01*
X-4278702Y-1368995D01*
X-4238750Y-1449796D01*
D02*
G37*
G36*
X1471202Y-1376005D02*
X1381250Y-1370204D01*
X1341298Y-1451005D01*
X1283798Y-1351412D01*
X1413702Y-1276412D01*
X1471202Y-1376005D01*
D02*
G37*
G36*
X1486202Y-1401986D02*
X1536202Y-1488588D01*
X1406298Y-1563588D01*
X1356298Y-1476986D01*
X1396250Y-1396184D01*
X1486202Y-1401986D01*
D02*
G37*
G36*
X7986746Y2096428D02*
X7986602Y2096433D01*
X7986955D01*
X7986746Y2096428D01*
D02*
G37*
D11*
X-2330091Y-2085541D02*
D03*
X-3048512Y-1007910D02*
D03*
D12*
X-3250208Y-820208D02*
D03*
X-3009792Y-579792D02*
D03*
X-760208Y-1590208D02*
D03*
X-519792Y-1349792D02*
D03*
D13*
X8282604Y7802165D02*
D03*
X7012604Y8056165D02*
D03*
X-9680500Y7806000D02*
D03*
X-10950500Y8060000D02*
D03*
X-10949139Y6159474D02*
D03*
X-9679139Y5905474D02*
D03*
X-7776499Y6908000D02*
D03*
X-9046499Y7162000D02*
D03*
X-7146500Y6864000D02*
D03*
X-5876500Y6610000D02*
D03*
X-7777604Y4996165D02*
D03*
X-9047604Y5250165D02*
D03*
X-7146307Y4954691D02*
D03*
X-5876307Y4700691D02*
D03*
X-9679139Y3998214D02*
D03*
X-10949139Y4252214D02*
D03*
X-9046243Y3348380D02*
D03*
X-7776243Y3094380D02*
D03*
X-5874604Y2789165D02*
D03*
X-7144604Y3043165D02*
D03*
X-9339949Y1147449D02*
D03*
X-8069949Y893449D02*
D03*
X8281244Y3994380D02*
D03*
X7011244Y4248380D02*
D03*
Y6155639D02*
D03*
X8281244Y5901639D02*
D03*
X5108604Y7158165D02*
D03*
X6378604Y6904165D02*
D03*
X6377604Y4996165D02*
D03*
X5107604Y5250165D02*
D03*
X5106244Y3348380D02*
D03*
X6376244Y3094380D02*
D03*
X4474604Y2789165D02*
D03*
X3204604Y3043165D02*
D03*
X3206307Y4954691D02*
D03*
X4476307Y4700691D02*
D03*
X4478604Y6606165D02*
D03*
X3208604Y6860165D02*
D03*
X6672604Y892165D02*
D03*
X5402604Y1146165D02*
D03*
D14*
X-15392935Y1841634D02*
D03*
X-16687749Y1871242D02*
D03*
X-17015749Y3751242D02*
D03*
X-15720937Y3721634D02*
D03*
X-13433936Y1673634D02*
D03*
X-14728748Y1703242D02*
D03*
X-15057455Y3589487D02*
D03*
X-13762642Y3559879D02*
D03*
X-14094936Y5429634D02*
D03*
X-15389748Y5459242D02*
D03*
D15*
X-12900826Y3173991D02*
D03*
X-11616202Y3009201D02*
D03*
X-11742202Y4912201D02*
D03*
X-13026826Y5076991D02*
D03*
X-13164326Y6980991D02*
D03*
X-11879702Y6816201D02*
D03*
D16*
X-5916576Y419035D02*
D03*
X-7077562Y993081D02*
D03*
D17*
X-4929919Y260578D02*
D03*
X-3957067Y-594392D02*
D03*
D18*
X12765067Y2069201D02*
D03*
X13971666Y1598527D02*
D03*
X12012667Y1430527D02*
D03*
X10806068Y1901201D02*
D03*
X11134774Y3787446D02*
D03*
X12341373Y3316771D02*
D03*
X11467067Y5657201D02*
D03*
X12673667Y5186527D02*
D03*
X13093068Y3949201D02*
D03*
X14299667Y3478527D02*
D03*
D19*
X10212792Y2911542D02*
D03*
X8963603Y3253514D02*
D03*
X10474792Y6712542D02*
D03*
X9225603Y7054514D02*
D03*
X9089603Y5156514D02*
D03*
X10338792Y4814542D02*
D03*
D20*
X3176407Y698027D02*
D03*
X4468873Y781382D02*
D03*
D21*
X2369503Y105608D02*
D03*
X1142650Y-309421D02*
D03*
D22*
X-557590Y-1814012D02*
D03*
X520041Y-1095592D02*
D03*
D23*
X-7420000Y6510000D02*
D03*
Y6850000D02*
D03*
X-4730000Y2640000D02*
D03*
Y2980000D02*
D03*
X-7420000Y5290000D02*
D03*
Y4950000D02*
D03*
X-7400000Y3300000D02*
D03*
Y2960000D02*
D03*
X-9330000Y3680000D02*
D03*
Y3340000D02*
D03*
X-9300000Y6830000D02*
D03*
Y7170000D02*
D03*
X-11240000Y7840000D02*
D03*
Y8180000D02*
D03*
X-11230000Y6490000D02*
D03*
Y6150000D02*
D03*
X-9580000Y1500000D02*
D03*
Y1160000D02*
D03*
X6730000Y6500000D02*
D03*
Y6160000D02*
D03*
X6720000Y4250000D02*
D03*
Y4590000D02*
D03*
X4810000Y5590000D02*
D03*
Y5250000D02*
D03*
X4850000Y6820000D02*
D03*
Y7160000D02*
D03*
X6910000Y6880000D02*
D03*
Y7220000D02*
D03*
X2920000Y3050000D02*
D03*
Y3390000D02*
D03*
X5090000Y1500000D02*
D03*
Y1160000D02*
D03*
X2980000Y5290000D02*
D03*
Y4950000D02*
D03*
X4870000Y3240000D02*
D03*
Y2900000D02*
D03*
D24*
X-6299703Y5775551D02*
D03*
X-6844703Y5925551D02*
D03*
X-6299703D02*
D03*
X-6844703Y5775551D02*
D03*
X-6844510Y4016242D02*
D03*
X-6299510Y3866242D02*
D03*
Y4016242D02*
D03*
X-6844510Y3866242D02*
D03*
X-6297807Y1954716D02*
D03*
X-6842807Y2104716D02*
D03*
X-6297807D02*
D03*
X-6842807Y1954716D02*
D03*
X-8744447Y2409930D02*
D03*
X-8199447Y2259930D02*
D03*
Y2409930D02*
D03*
X-8744447Y2259930D02*
D03*
X-8200807Y4161716D02*
D03*
X-8745807Y4311716D02*
D03*
X-8200807D02*
D03*
X-8745807Y4161716D02*
D03*
X-8746807Y6219716D02*
D03*
X-8201807Y6069716D02*
D03*
Y6219716D02*
D03*
X-8746807Y6069716D02*
D03*
X-10105807Y6967716D02*
D03*
X-10650807Y7117716D02*
D03*
X-10105807D02*
D03*
X-10650807Y6967716D02*
D03*
X-10649447Y5217190D02*
D03*
X-10104447Y5067190D02*
D03*
Y5217190D02*
D03*
X-10649447Y5067190D02*
D03*
X-10104447Y3159930D02*
D03*
X-10649447Y3309930D02*
D03*
X-10104447D02*
D03*
X-10649447Y3159930D02*
D03*
X-9038152Y209000D02*
D03*
X-8493152Y59000D02*
D03*
Y209000D02*
D03*
X-9038152Y59000D02*
D03*
X4046807Y5771716D02*
D03*
X3501807Y5921716D02*
D03*
X4046807D02*
D03*
X3501807Y5771716D02*
D03*
X4044510Y4016241D02*
D03*
X3499510D02*
D03*
X4044510Y3866241D02*
D03*
X3499510D02*
D03*
X4042807Y1954716D02*
D03*
X3497807Y2104716D02*
D03*
X4042807D02*
D03*
X3497807Y1954716D02*
D03*
X5945807Y4311716D02*
D03*
X5400807D02*
D03*
X5945807Y4161716D02*
D03*
X5400807D02*
D03*
X5946807Y6069716D02*
D03*
X5401807Y6219716D02*
D03*
X5946807D02*
D03*
X5401807Y6069716D02*
D03*
X7850807Y7117716D02*
D03*
X7305807D02*
D03*
X7850807Y6967716D02*
D03*
X7305807D02*
D03*
X7849447Y5067190D02*
D03*
X7304447Y5217189D02*
D03*
X7849447D02*
D03*
X7304447Y5067190D02*
D03*
X7849447Y3309930D02*
D03*
X7304447D02*
D03*
X7849447Y3159930D02*
D03*
X7304447D02*
D03*
X6240807Y57716D02*
D03*
X5695807Y207716D02*
D03*
X6240807D02*
D03*
X5695807Y57716D02*
D03*
X5947500Y2262500D02*
D03*
X5402500Y2412500D02*
D03*
X5947500D02*
D03*
X5402500Y2262500D02*
D03*
D25*
X-8710000Y5560000D02*
D03*
X-9050000D02*
D03*
X-10420000Y4590000D02*
D03*
X-10760000D02*
D03*
X1920000Y1620000D02*
D03*
X2260000D02*
D03*
X3560000Y7150000D02*
D03*
X3220000D02*
D03*
D26*
X-12798133Y6055908D02*
D03*
X-12243998Y5944291D02*
D03*
X-12787670Y5906273D02*
D03*
X-12254461Y6093925D02*
D03*
X-12662134Y4157908D02*
D03*
X-12107998Y4046291D02*
D03*
X-12118461Y4195926D02*
D03*
X-12651670Y4008274D02*
D03*
X-11981998Y2143291D02*
D03*
X-12536134Y2254908D02*
D03*
X-11992461Y2292926D02*
D03*
X-12525670Y2105274D02*
D03*
D27*
X-13521858Y7289586D02*
D03*
X-13498141Y6950414D02*
D03*
X-13331859Y5389586D02*
D03*
X-13308142Y5050414D02*
D03*
X-13201859Y3489586D02*
D03*
X-13178142Y3150414D02*
D03*
D28*
X-15739520Y5737417D02*
D03*
X-15680479Y5402583D02*
D03*
X-15349519Y3687417D02*
D03*
X-15290480Y3352583D02*
D03*
X-17358560Y4042252D02*
D03*
X-17299519Y3707417D02*
D03*
X-16900481Y1482583D02*
D03*
X-16959520Y1817417D02*
D03*
D29*
X-14930983Y4583314D02*
D03*
X-14368214Y4530231D02*
D03*
X-14394263Y4677952D02*
D03*
X-14904936Y4435593D02*
D03*
X-14035922Y2660476D02*
D03*
X-14598689Y2713559D02*
D03*
X-14061969Y2808197D02*
D03*
X-14572643Y2565838D02*
D03*
X-14269983Y827314D02*
D03*
X-13707214Y774231D02*
D03*
X-13733263Y921952D02*
D03*
X-14243936Y679593D02*
D03*
X-15994215Y2822231D02*
D03*
X-16556982Y2875314D02*
D03*
X-16020264Y2969952D02*
D03*
X-16530936Y2727593D02*
D03*
X-16228983Y995314D02*
D03*
X-15666216Y942231D02*
D03*
X-15692262Y1089952D02*
D03*
X-16202936Y847593D02*
D03*
D30*
X-14442583Y2049520D02*
D03*
X-14777417Y1990480D02*
D03*
D31*
X-7031962Y5338D02*
D03*
X-6505533Y-135718D02*
D03*
X-7070785Y-139551D02*
D03*
X-6544355Y-280607D02*
D03*
D32*
X-5216519Y-835213D02*
D03*
X-4744536Y-1107714D02*
D03*
X-4669535Y-977810D02*
D03*
X-5141519Y-705310D02*
D03*
D33*
X-5175000Y392776D02*
D03*
X-5005000Y687224D02*
D03*
D34*
X-3502893Y-1886120D02*
D03*
X-3117520Y-2271494D02*
D03*
X-3608959Y-1992187D02*
D03*
X-3223586Y-2377560D02*
D03*
D35*
X-7343999Y1055793D02*
D03*
X-7256001Y1384207D02*
D03*
D36*
X1373750Y-1357213D02*
D03*
X1446250Y-1482787D02*
D03*
D37*
X9987670Y5906273D02*
D03*
X9454461Y6093925D02*
D03*
X9998134Y6055908D02*
D03*
X9443998Y5944291D02*
D03*
X9862134Y4157908D02*
D03*
X9318461Y4195925D02*
D03*
X9851670Y4008273D02*
D03*
X9307998Y4046291D02*
D03*
X9725670Y2105273D02*
D03*
X9192461Y2292925D02*
D03*
X9736134Y2254908D02*
D03*
X9181998Y2143291D02*
D03*
D38*
X8911858Y7089586D02*
D03*
X8888141Y6750414D02*
D03*
X8811858Y5529586D02*
D03*
X8788141Y5190414D02*
D03*
X8661858Y2959586D02*
D03*
X8638141Y2620414D02*
D03*
D39*
X11140480Y5142583D02*
D03*
X11199520Y5477417D02*
D03*
X10919520Y4167417D02*
D03*
X10860480Y3832583D02*
D03*
X10579520Y1937417D02*
D03*
X10520480Y1602583D02*
D03*
D40*
X12130983Y4583314D02*
D03*
X11594262Y4677952D02*
D03*
X12104935Y4435593D02*
D03*
X11568215Y4530231D02*
D03*
X11772642Y2565838D02*
D03*
X11261969Y2808197D02*
D03*
X11798689Y2713559D02*
D03*
X11235921Y2660476D02*
D03*
X11469983Y827314D02*
D03*
X10933262Y921952D02*
D03*
X11443935Y679593D02*
D03*
X10907215Y774231D02*
D03*
X13730936Y2727593D02*
D03*
X13220262Y2969952D02*
D03*
X13756982Y2875314D02*
D03*
X13194215Y2822231D02*
D03*
X13428983Y995314D02*
D03*
X12892262Y1089952D02*
D03*
X13402934Y847593D02*
D03*
X12866216Y942231D02*
D03*
D41*
X13142583Y4249520D02*
D03*
X13477417Y4190480D02*
D03*
X12822583Y2379520D02*
D03*
X13157417Y2320480D02*
D03*
D42*
X2776001Y954207D02*
D03*
X2863999Y625793D02*
D03*
D43*
X4233067Y6346D02*
D03*
X3706638Y-134710D02*
D03*
X4271890Y-138543D02*
D03*
X3745461Y-279599D02*
D03*
D44*
X2416520Y-835214D02*
D03*
X1869536Y-977810D02*
D03*
X2341520Y-705310D02*
D03*
X1944536Y-1107714D02*
D03*
D45*
X702893Y-1886121D02*
D03*
X317520Y-2271494D02*
D03*
X808959Y-1992187D02*
D03*
X423586Y-2377560D02*
D03*
D46*
X1307224Y115000D02*
D03*
X1012776Y-55000D02*
D03*
D47*
X-4173750Y-1337213D02*
D03*
X-4246250Y-1462787D02*
D03*
D48*
X-97000Y3035000D02*
D03*
Y3235000D02*
D03*
X-2703000Y3035000D02*
D03*
Y3235000D02*
D03*
D53*
X-13959999Y8011400D02*
D03*
X-14213998D02*
D03*
X-14467999D02*
D03*
X-14721999D02*
D03*
X11414000D02*
D03*
X11668000D02*
D03*
X11922000D02*
D03*
X12176000D02*
D03*
D54*
X-14975999D02*
D03*
X11160000D02*
D03*
D55*
X-3346000Y7831000D02*
D03*
Y5037000D02*
D03*
Y5545000D02*
D03*
Y5799000D02*
D03*
Y6053000D02*
D03*
Y6307000D02*
D03*
Y6561000D02*
D03*
Y6815000D02*
D03*
Y7069000D02*
D03*
Y7323000D02*
D03*
Y7577000D02*
D03*
Y5291000D02*
D03*
X-4870000Y7831000D02*
D03*
Y7577000D02*
D03*
Y6561000D02*
D03*
Y6815000D02*
D03*
Y7069000D02*
D03*
Y7323000D02*
D03*
Y5037000D02*
D03*
Y5545000D02*
D03*
Y5291000D02*
D03*
Y6053000D02*
D03*
Y5799000D02*
D03*
Y6307000D02*
D03*
X546000Y7323000D02*
D03*
Y7069000D02*
D03*
Y6815000D02*
D03*
Y6561000D02*
D03*
Y6307000D02*
D03*
Y7577000D02*
D03*
Y7831000D02*
D03*
X2070000Y5291000D02*
D03*
Y7577000D02*
D03*
Y7323000D02*
D03*
Y7069000D02*
D03*
Y6815000D02*
D03*
Y6561000D02*
D03*
Y6307000D02*
D03*
Y6053000D02*
D03*
Y5799000D02*
D03*
Y5037000D02*
D03*
Y7831000D02*
D03*
X546000Y5799000D02*
D03*
Y6053000D02*
D03*
Y5037000D02*
D03*
Y5291000D02*
D03*
Y5545000D02*
D03*
X2070000D02*
D03*
D56*
X-9008000Y7943000D02*
D03*
X-11198000Y4710000D02*
D03*
X-11463000Y1344000D02*
D03*
X-11883000Y7943000D02*
D03*
X-13367000Y7842000D02*
D03*
X-2800000Y0D02*
D03*
Y7943000D02*
D03*
X-12624000Y1268000D02*
D03*
X0Y0D02*
D03*
X6208000Y7943000D02*
D03*
X8398000Y4710000D02*
D03*
X8663000Y1344000D02*
D03*
X9083000Y7943000D02*
D03*
X10567000Y7842000D02*
D03*
X0Y7943000D02*
D03*
X9824000Y1268000D02*
D03*
D57*
X-2727500Y2375005D02*
D03*
X-72500D02*
D03*
D58*
X-2727500Y2015000D02*
D03*
X-3277000Y2370000D02*
D03*
Y1870000D02*
D03*
Y2120000D02*
D03*
X-4727000Y2370000D02*
D03*
Y1870000D02*
D03*
X-72500Y2015000D02*
D03*
X1927000Y1870000D02*
D03*
X477000Y2370000D02*
D03*
Y1870000D02*
D03*
Y2120000D02*
D03*
X1927000Y2370000D02*
D03*
D59*
X-2698000Y757500D02*
D03*
X-3398000D02*
D03*
X598000Y622500D02*
D03*
X-102000D02*
D03*
D60*
X-3588000Y987500D02*
D03*
X-3188000D02*
D03*
X-3688000Y527500D02*
D03*
X-2888000Y987500D02*
D03*
X88000Y392500D02*
D03*
X888000Y852500D02*
D03*
X388000Y392500D02*
D03*
X788000D02*
D03*
D61*
X-4497910Y3669500D02*
D03*
X-4243910D02*
D03*
X-3989910D02*
D03*
X-3735910D02*
D03*
X1680912D02*
D03*
X1426912D02*
D03*
X1172912D02*
D03*
X918912D02*
D03*
D62*
X-4027000Y2680000D02*
D03*
Y1560000D02*
D03*
X1227000Y2680000D02*
D03*
Y1560000D02*
D03*
D63*
X-13792999Y6070000D02*
D03*
X10993000D02*
D03*
D64*
X-11117499Y1886000D02*
D03*
X-9797499D02*
D03*
X8317500D02*
D03*
X6997500D02*
D03*
D65*
X6627500Y5563000D02*
D03*
X4722500Y3658000D02*
D03*
X8532500D02*
D03*
X-9427500Y5563000D02*
D03*
X-7522500Y3658000D02*
D03*
X-11332500D02*
D03*
D66*
X-8262999Y1505000D02*
D03*
X6478000D02*
D03*
D67*
X-9024999D02*
D03*
X-9278999D02*
D03*
X-8516999D02*
D03*
X-8770999D02*
D03*
X5970000D02*
D03*
X5716000D02*
D03*
X5462000D02*
D03*
X6224000D02*
D03*
D68*
X-111877Y7272377D02*
D03*
X-106877Y6972377D02*
D03*
X-101001Y1236499D02*
D03*
Y1661499D02*
D03*
X-2698999Y1236499D02*
D03*
Y1661499D02*
D03*
X-2698123Y7272377D02*
D03*
X-2693123Y6972377D02*
D03*
D69*
X-11000Y1448999D02*
D03*
X-2789000D02*
D03*
D70*
X-206001Y1263999D02*
D03*
Y1633999D02*
D03*
X-2593999Y1263999D02*
D03*
Y1633999D02*
D03*
D71*
X-11000Y1571499D02*
D03*
Y1326499D02*
D03*
X-2789000D02*
D03*
Y1571499D02*
D03*
D78*
X-2558487Y-1862802D02*
D03*
X-2827895Y-1234184D02*
D03*
X7963604Y7798165D02*
D03*
X7328604Y8052165D02*
D03*
X-15706395Y1782301D02*
D03*
X-16375854Y1922176D02*
D03*
X-16703854Y3802176D02*
D03*
X-16034395Y3662301D02*
D03*
X-13747395Y1614301D02*
D03*
X-14416853Y1754176D02*
D03*
X-14745561Y3640420D02*
D03*
X-14076102Y3500546D02*
D03*
X-14408395Y5370301D02*
D03*
X-15077853Y5510176D02*
D03*
X-12585317Y3192044D02*
D03*
X-11934146Y2982958D02*
D03*
X-12060146Y4885958D02*
D03*
X-12711317Y5095044D02*
D03*
X-12848817Y6999044D02*
D03*
X-12197646Y6789958D02*
D03*
X-9999500Y7802000D02*
D03*
X-10634500Y8056000D02*
D03*
X-10633139Y6155474D02*
D03*
X-9998139Y5901474D02*
D03*
X-8095499Y6904000D02*
D03*
X-8730499Y7158000D02*
D03*
X-6830500Y6860000D02*
D03*
X-6195500Y6606000D02*
D03*
X-8096604Y4992165D02*
D03*
X-8731604Y5246165D02*
D03*
X-6830307Y4950691D02*
D03*
X-6195307Y4696691D02*
D03*
X-9998139Y3994214D02*
D03*
X-10633139Y4248214D02*
D03*
X-8730243Y3344380D02*
D03*
X-8095243Y3090380D02*
D03*
X-6193604Y2785165D02*
D03*
X-6828604Y3039165D02*
D03*
X-9023949Y1143449D02*
D03*
X-8388949Y889449D02*
D03*
X-6225742Y497735D02*
D03*
X-6773365Y907430D02*
D03*
X-4658255Y99114D02*
D03*
X-4235329Y-438356D02*
D03*
X13075572Y2010389D02*
D03*
X13656818Y1649981D02*
D03*
X11697818Y1481981D02*
D03*
X11116572Y1842389D02*
D03*
X11445278Y3728634D02*
D03*
X12026525Y3368226D02*
D03*
X9894290Y2929804D02*
D03*
X9278554Y3227481D02*
D03*
X11777572Y5598389D02*
D03*
X12358818Y5237981D02*
D03*
X10156290Y6730804D02*
D03*
X9540554Y7028481D02*
D03*
X9404554Y5130481D02*
D03*
X10020290Y4832804D02*
D03*
X7962244Y3990380D02*
D03*
X7327244Y4244380D02*
D03*
Y6151639D02*
D03*
X7962244Y5897639D02*
D03*
X5424604Y7154165D02*
D03*
X6059604Y6900165D02*
D03*
X6058604Y4992165D02*
D03*
X5423604Y5246165D02*
D03*
X5422244Y3344380D02*
D03*
X6057244Y3090380D02*
D03*
X4155604Y2785165D02*
D03*
X3520604Y3039165D02*
D03*
X3522307Y4950691D02*
D03*
X4157307Y4696691D02*
D03*
X4159604Y6602165D02*
D03*
X3524604Y6856165D02*
D03*
X13403572Y3890389D02*
D03*
X13984818Y3529981D02*
D03*
X6353604Y888165D02*
D03*
X5718604Y1142165D02*
D03*
X3482675Y775950D02*
D03*
X4161778Y694955D02*
D03*
X2095240Y-57356D02*
D03*
X1418314Y-154885D02*
D03*
X-331316Y-1593395D02*
D03*
X297302Y-1323987D02*
D03*
D79*
X-110699Y-2091198D02*
D03*
X525697Y-1454802D02*
D03*
X2281996Y-242826D02*
D03*
X1502573Y-692826D02*
D03*
X3424833Y234531D02*
D03*
X4294166Y467468D02*
D03*
X6422604Y634165D02*
D03*
X5522604D02*
D03*
X13122336Y3424142D02*
D03*
X14008662Y3267858D02*
D03*
X3328604Y6348165D02*
D03*
X4228604D02*
D03*
X4226307Y4442691D02*
D03*
X3326307D02*
D03*
X3324604Y2531165D02*
D03*
X4224604D02*
D03*
X6126244Y2836380D02*
D03*
X5226244D02*
D03*
X5227604Y4738165D02*
D03*
X6127604D02*
D03*
X6128604Y6646165D02*
D03*
X5228604D02*
D03*
X7132604Y7544165D02*
D03*
X8032604D02*
D03*
X8031244Y5643639D02*
D03*
X7131244D02*
D03*
Y3736380D02*
D03*
X8031244D02*
D03*
X10071404Y4574609D02*
D03*
X9173596Y4637390D02*
D03*
X9309596Y6535390D02*
D03*
X10207404Y6472609D02*
D03*
X12382663Y4975858D02*
D03*
X11496336Y5132142D02*
D03*
X9047596Y2734390D02*
D03*
X9945404Y2671609D02*
D03*
X11164043Y3262386D02*
D03*
X12050370Y3106103D02*
D03*
X11721663Y1219858D02*
D03*
X10835336Y1376142D02*
D03*
X13680663Y1387858D02*
D03*
X12794336Y1544142D02*
D03*
X-3325698Y-1454802D02*
D03*
X-2689301Y-2091198D02*
D03*
X-4302573Y-692827D02*
D03*
X-5081996Y-242827D02*
D03*
X-7094166Y467468D02*
D03*
X-6224833Y234531D02*
D03*
X-8319949Y635449D02*
D03*
X-9219949D02*
D03*
X-7024604Y2531165D02*
D03*
X-6124604D02*
D03*
X-8026243Y2836380D02*
D03*
X-8926244D02*
D03*
X-10829139Y3740214D02*
D03*
X-9929139D02*
D03*
X-7026307Y4442691D02*
D03*
X-6126307D02*
D03*
X-8027604Y4738165D02*
D03*
X-8927604D02*
D03*
X-6126500Y6352000D02*
D03*
X-7026500D02*
D03*
X-8926500Y6650000D02*
D03*
X-8026499D02*
D03*
X-10829139Y5647474D02*
D03*
X-9929139D02*
D03*
X-9930500Y7548000D02*
D03*
X-10830500D02*
D03*
X-13008904Y6478610D02*
D03*
X-12111096Y6541390D02*
D03*
X-11973596Y4637390D02*
D03*
X-12871404Y4574610D02*
D03*
X-11847596Y2734390D02*
D03*
X-12745404Y2671610D02*
D03*
X-14296336Y5132142D02*
D03*
X-15182663Y4975858D02*
D03*
X-14850369Y3106103D02*
D03*
X-13964043Y3262386D02*
D03*
X-14521663Y1219858D02*
D03*
X-13635336Y1376142D02*
D03*
X-15922336Y3424142D02*
D03*
X-16808662Y3267858D02*
D03*
X-15594336Y1544142D02*
D03*
X-16480663Y1387858D02*
D03*
D80*
X566710Y-1413790D02*
D03*
X-151711Y-2132210D02*
D03*
X1452344Y-721826D02*
D03*
X2332225Y-213826D02*
D03*
X4350190Y482480D02*
D03*
X3368809Y219520D02*
D03*
X5464604Y634165D02*
D03*
X6480604D02*
D03*
X14065782Y3257787D02*
D03*
X13065218Y3434213D02*
D03*
X4286604Y6348165D02*
D03*
X3270604D02*
D03*
X3268307Y4442691D02*
D03*
X4284307D02*
D03*
X4282604Y2531165D02*
D03*
X3266604D02*
D03*
X5168244Y2836380D02*
D03*
X6184244D02*
D03*
X6185604Y4738165D02*
D03*
X5169604D02*
D03*
X5170604Y6646165D02*
D03*
X6186604D02*
D03*
X8090604Y7544165D02*
D03*
X7074604D02*
D03*
X7073244Y5643639D02*
D03*
X8089244D02*
D03*
Y3736380D02*
D03*
X7073244D02*
D03*
X9115737Y4641436D02*
D03*
X10129262Y4570564D02*
D03*
X10265262Y6468564D02*
D03*
X9251737Y6539436D02*
D03*
X11439217Y5142213D02*
D03*
X12439782Y4965787D02*
D03*
X10003262Y2667564D02*
D03*
X8989737Y2738436D02*
D03*
X12107489Y3096031D02*
D03*
X11106924Y3272458D02*
D03*
X10778217Y1386213D02*
D03*
X11778782Y1209787D02*
D03*
X12737217Y1554213D02*
D03*
X13737782Y1377787D02*
D03*
X-2648289Y-2132210D02*
D03*
X-3366710Y-1413790D02*
D03*
X-5132225Y-213827D02*
D03*
X-4252344Y-721827D02*
D03*
X-6168809Y219520D02*
D03*
X-7150190Y482480D02*
D03*
X-9277949Y635449D02*
D03*
X-8261949D02*
D03*
X-6066604Y2531165D02*
D03*
X-7082604D02*
D03*
X-8984243Y2836380D02*
D03*
X-7968243D02*
D03*
X-9871139Y3740214D02*
D03*
X-10887139D02*
D03*
X-6068307Y4442691D02*
D03*
X-7084307D02*
D03*
X-8985604Y4738165D02*
D03*
X-7969604D02*
D03*
X-7084500Y6352000D02*
D03*
X-6068500D02*
D03*
X-7968499Y6650000D02*
D03*
X-8984499D02*
D03*
X-9871139Y5647474D02*
D03*
X-10887139D02*
D03*
X-10888500Y7548000D02*
D03*
X-9872500D02*
D03*
X-12053238Y6545436D02*
D03*
X-13066763Y6474564D02*
D03*
X-12929262Y4570564D02*
D03*
X-11915737Y4641436D02*
D03*
X-12803262Y2667564D02*
D03*
X-11789737Y2738436D02*
D03*
X-15239783Y4965787D02*
D03*
X-14239217Y5142213D02*
D03*
X-13906924Y3272458D02*
D03*
X-14907489Y3096031D02*
D03*
X-13578217Y1386213D02*
D03*
X-14578783Y1209787D02*
D03*
X-16865782Y3257787D02*
D03*
X-15865218Y3434213D02*
D03*
X-16537782Y1377787D02*
D03*
X-15537218Y1554213D02*
D03*
D81*
X207499Y-1773000D02*
D03*
X1892285Y-467827D02*
D03*
X3859500Y351000D02*
D03*
X5972604Y634165D02*
D03*
X13565500Y3346000D02*
D03*
X3778604Y6348165D02*
D03*
X3776307Y4442691D02*
D03*
X3774604Y2531165D02*
D03*
X5676244Y2836380D02*
D03*
X5677604Y4738165D02*
D03*
X5678604Y6646165D02*
D03*
X7582604Y7544165D02*
D03*
X7581244Y5643639D02*
D03*
Y3736380D02*
D03*
X9622499Y4606000D02*
D03*
X9758499Y6504000D02*
D03*
X11939500Y5054000D02*
D03*
X9496499Y2703000D02*
D03*
X11607206Y3184245D02*
D03*
X11278500Y1298000D02*
D03*
X13237500Y1466000D02*
D03*
X-3007499Y-1773000D02*
D03*
X-4692284Y-467827D02*
D03*
X-6659500Y351000D02*
D03*
X-8769949Y635449D02*
D03*
X-6574604Y2531165D02*
D03*
X-8476243Y2836380D02*
D03*
X-10379139Y3740214D02*
D03*
X-6576307Y4442691D02*
D03*
X-8477604Y4738165D02*
D03*
X-6576500Y6352000D02*
D03*
X-8476499Y6650000D02*
D03*
X-10379139Y5647474D02*
D03*
X-10380500Y7548000D02*
D03*
X-12560000Y6510000D02*
D03*
X-12422500Y4606000D02*
D03*
X-12296499Y2703000D02*
D03*
X-14739500Y5054000D02*
D03*
X-14407207Y3184245D02*
D03*
X-14078500Y1298000D02*
D03*
X-16365500Y3346000D02*
D03*
X-16037500Y1466000D02*
D03*
D82*
X4870000Y2600000D02*
D03*
X3230000Y3390000D02*
D03*
X7010000Y4590000D02*
D03*
X8360000Y2640000D02*
D03*
X13400000Y2280000D02*
D03*
X10476556Y1330607D02*
D03*
X-7630000Y3330000D02*
D03*
X-14089999Y7740000D02*
D03*
X4270000Y5770000D02*
D03*
X4350000Y5920000D02*
D03*
X6350000Y2160000D02*
D03*
X830000Y4310000D02*
D03*
X2290000Y6370000D02*
D03*
X4030000Y5160000D02*
D03*
X4250000Y2100000D02*
D03*
X6255000Y2410000D02*
D03*
X3130000Y2110000D02*
D03*
X3280000Y1960000D02*
D03*
X3510000Y1590000D02*
D03*
X4186315Y1340000D02*
D03*
X4000000Y1470000D02*
D03*
X6704498Y3309930D02*
D03*
X120000Y-2450000D02*
D03*
X-140000Y-1140000D02*
D03*
X840000Y-1750000D02*
D03*
X560000Y-2500000D02*
D03*
X2040000Y-1260000D02*
D03*
X3400000Y-370000D02*
D03*
X2600000Y-560000D02*
D03*
X4770000Y150000D02*
D03*
X6520000Y210000D02*
D03*
X5300000Y60000D02*
D03*
X4640000Y-40000D02*
D03*
X3230000Y5770000D02*
D03*
Y3870000D02*
D03*
X4270000Y4020000D02*
D03*
X6190000Y4310000D02*
D03*
X4990000Y4170000D02*
D03*
X5140000Y6070000D02*
D03*
X6160000Y6220000D02*
D03*
X7300000Y6760000D02*
D03*
X8110000Y7110000D02*
D03*
X8060000Y5220000D02*
D03*
X7020000Y5060000D02*
D03*
X8040000Y3310000D02*
D03*
X7010000Y3160000D02*
D03*
X10270000Y6040000D02*
D03*
X9160000Y5960000D02*
D03*
X8970000Y4070000D02*
D03*
X10120000Y4140000D02*
D03*
X9970000Y2240000D02*
D03*
X8880000Y2160000D02*
D03*
X13730000Y940000D02*
D03*
X12560000Y990000D02*
D03*
X14010001Y2830000D02*
D03*
X13160001Y2620000D02*
D03*
X12390000Y4540000D02*
D03*
X11270000Y4580000D02*
D03*
X12040000Y2670000D02*
D03*
X10920000Y2710000D02*
D03*
X11670000Y790000D02*
D03*
X10550000Y840000D02*
D03*
X4640000Y6210000D02*
D03*
X6702284Y57716D02*
D03*
X5060000Y210000D02*
D03*
X6150000Y2260000D02*
D03*
X9090000Y6120000D02*
D03*
X7850000Y6750000D02*
D03*
X12920000Y3030000D02*
D03*
X11980000Y3770000D02*
D03*
X10000000Y2070000D02*
D03*
X10270000Y2050000D02*
D03*
X2470000Y1900000D02*
D03*
X3370000Y5290000D02*
D03*
X4810000Y5910000D02*
D03*
X7060000Y6500000D02*
D03*
X9090000Y5520000D02*
D03*
X11330000Y4090000D02*
D03*
X13770000Y4130000D02*
D03*
X10790000Y5200000D02*
D03*
X8540000Y6780000D02*
D03*
X5220000Y6910000D02*
D03*
X6660000Y6880000D02*
D03*
X4850000Y6550000D02*
D03*
X3900000Y7160000D02*
D03*
X2470000Y870000D02*
D03*
X1520000Y240000D02*
D03*
X-4740000Y3440000D02*
D03*
X-11770000Y2300000D02*
D03*
X-9050000Y6070000D02*
D03*
X-12040000Y6110000D02*
D03*
X-10650000Y6660000D02*
D03*
X-10490000Y6490000D02*
D03*
X-5630000Y4180000D02*
D03*
X-7970000Y5370000D02*
D03*
X-8200000Y5800000D02*
D03*
X-6880000Y6140000D02*
D03*
X-7100000Y5770000D02*
D03*
X-5900000Y7070000D02*
D03*
X-7540000Y5930000D02*
D03*
X-11940000Y3510000D02*
D03*
X-11950000Y3910000D02*
D03*
X-6840000Y1620000D02*
D03*
X-7610000Y1590000D02*
D03*
X-7520000Y1308400D02*
D03*
X-7720000Y1010000D02*
D03*
X-9580000Y2130000D02*
D03*
X-7420000Y2650000D02*
D03*
X-7600000Y2310000D02*
D03*
X-9912284Y7117716D02*
D03*
X-9897190Y5217190D02*
D03*
X-10892810Y5067190D02*
D03*
X-9920070Y3309930D02*
D03*
X-10849930Y3159930D02*
D03*
X-11950000Y4210000D02*
D03*
X-12640000Y3840000D02*
D03*
X-14780000Y2530000D02*
D03*
X-14089999Y3010000D02*
D03*
X-14180000Y4720000D02*
D03*
X-14860001Y4220000D02*
D03*
X-16039999Y3140000D02*
D03*
X-16689999Y2700000D02*
D03*
X-15530000Y1130000D02*
D03*
X-16410001Y810000D02*
D03*
X-13050000Y2260000D02*
D03*
Y1390000D02*
D03*
X-14450000Y650000D02*
D03*
X-13489999Y960000D02*
D03*
X-12750000Y2090000D02*
D03*
X-2940000Y-2450000D02*
D03*
X-3750000Y-1850000D02*
D03*
X-4560000Y-810000D02*
D03*
X-5430000Y-710000D02*
D03*
X-6034716Y2104716D02*
D03*
X-6086242Y4016242D02*
D03*
X-7056242Y3866242D02*
D03*
X-6075550Y5925551D02*
D03*
X-7969711Y6222400D02*
D03*
X-8031600Y4310909D02*
D03*
X-8938284Y4161716D02*
D03*
X-7990000Y2410000D02*
D03*
X-8990000Y2260000D02*
D03*
X-9080000Y2420000D02*
D03*
X-9250000Y50000D02*
D03*
X-6290000Y-190000D02*
D03*
X-7370000Y-60000D02*
D03*
X-8330000Y210000D02*
D03*
X-9450000D02*
D03*
X-10100000Y2770000D02*
D03*
X-15280000Y5840000D02*
D03*
X-13250000Y7289586D02*
D03*
X-11895207Y7400000D02*
D03*
X-11050000Y6690000D02*
D03*
X-11510000Y6480000D02*
D03*
X-5470000Y3270000D02*
D03*
X-5250000Y3440000D02*
D03*
X-5620247Y1639753D02*
D03*
X-6300000Y1640000D02*
D03*
X-4870142Y3288937D02*
D03*
X-3900000Y70000D02*
D03*
X-4670000Y-1360000D02*
D03*
X-3050000Y7260000D02*
D03*
X-2810000Y3910000D02*
D03*
X-2950000Y3530000D02*
D03*
X-5030000Y2980000D02*
D03*
X-5390000Y900000D02*
D03*
X-9820000Y1500000D02*
D03*
X-9330000Y3920000D02*
D03*
X-10420000Y4850000D02*
D03*
X-7420000Y5570000D02*
D03*
X-8480000D02*
D03*
X-7430000Y6240000D02*
D03*
X-9300000Y6580000D02*
D03*
X-13080000Y5400000D02*
D03*
X-12050000Y6290000D02*
D03*
X-15169894Y4539496D02*
D03*
X-15750000Y2870000D02*
D03*
X-14160001Y2110000D02*
D03*
X-13400000Y2950000D02*
D03*
X-15905000Y4335000D02*
D03*
X-15380000Y3870000D02*
D03*
%TF.MD5,5106e160420bee765b432d3ccd8e8eeb*%
M02*
